M48
; DRILL file {KiCad (5.1.4)-1} date 12/1/2019 9:19:23 PM
; FORMAT={-:-/ absolute / inch / decimal}
; #@! TF.CreationDate,2019-12-01T21:19:23-06:00
; #@! TF.GenerationSoftware,Kicad,Pcbnew,(5.1.4)-1
; #@! TF.FileFunction,Plated,1,2,PTH
FMAT,2
INCH
T1C0.0320
T2C0.0360
T3C0.0380
T4C0.0390
T5C0.0400
T6C0.0560
T7C0.1000
T8C0.1180
%
G90
G05
T1
X5.677Y-5.217
X5.677Y-5.417
T2
X5.277Y-4.977
T3
X5.972Y-5.847
X6.272Y-5.847
T4
X4.637Y-4.207
X4.637Y-4.407
X4.637Y-4.507
X4.637Y-4.607
X4.837Y-4.207
X4.837Y-4.407
X4.837Y-4.507
X4.837Y-4.607
X5.287Y-4.207
X5.287Y-4.407
X5.287Y-4.507
X5.287Y-4.607
X5.487Y-4.207
X5.487Y-4.407
X5.487Y-4.507
X5.487Y-4.607
T5
X5.657Y-5.547
X5.657Y-5.847
X4.407Y-4.407
X4.407Y-4.707
X5.057Y-4.407
X5.057Y-4.707
T6
X4.837Y-4.997
X4.837Y-5.197
X4.837Y-5.397
X5.037Y-4.997
X5.037Y-5.197
X5.037Y-5.397
X5.477Y-5.387
X5.277Y-5.387
X5.277Y-5.187
X4.397Y-4.997
X4.397Y-5.197
X4.397Y-5.397
X4.597Y-4.997
X4.597Y-5.197
X4.597Y-5.397
X5.477Y-5.187
T8
X6.648Y-5.585
X6.648Y-4.4039
X4.1283Y-5.585
X4.1283Y-4.4039
T7
G00X5.737Y-5.072
M15
G01X5.737Y-4.922
M16
G05
G00X6.497Y-5.072
M15
G01X6.497Y-4.922
M16
G05
T0
M30
