G04 #@! TF.GenerationSoftware,KiCad,Pcbnew,(5.1.4)-1*
G04 #@! TF.CreationDate,2019-12-01T21:19:20-06:00*
G04 #@! TF.ProjectId,rotax 912 soft start,726f7461-7820-4393-9132-20736f667420,rev?*
G04 #@! TF.SameCoordinates,Original*
G04 #@! TF.FileFunction,Copper,L1,Top*
G04 #@! TF.FilePolarity,Positive*
%FSLAX46Y46*%
G04 Gerber Fmt 4.6, Leading zero omitted, Abs format (unit mm)*
G04 Created by KiCad (PCBNEW (5.1.4)-1) date 2019-12-01 21:19:20*
%MOMM*%
%LPD*%
G04 APERTURE LIST*
%ADD10C,2.794000*%
%ADD11O,2.540000X6.350000*%
%ADD12C,1.930400*%
%ADD13C,1.625600*%
%ADD14C,2.032000*%
%ADD15C,1.778000*%
%ADD16C,1.981200*%
%ADD17C,5.080000*%
%ADD18C,1.500000*%
%ADD19C,0.254000*%
G04 APERTURE END LIST*
D10*
X111684000Y-126924000D03*
X116764000Y-126924000D03*
X111684000Y-132004000D03*
X116764000Y-132004000D03*
X111684000Y-137084000D03*
X116764000Y-137084000D03*
X122860000Y-126924000D03*
X127940000Y-126924000D03*
X122860000Y-132004000D03*
X127940000Y-132004000D03*
X122860000Y-137084000D03*
X127940000Y-137084000D03*
D11*
X165024000Y-126924000D03*
X145720000Y-126924000D03*
D12*
X159309000Y-148514000D03*
X151689000Y-148514000D03*
D13*
X144196000Y-137592000D03*
X144196000Y-132512000D03*
D14*
X143688000Y-140894000D03*
X143688000Y-148514000D03*
X111938000Y-119558000D03*
X111938000Y-111938000D03*
X128448000Y-119558000D03*
X128448000Y-111938000D03*
D10*
X134036000Y-131750000D03*
X139116000Y-131750000D03*
X134036000Y-136830000D03*
D15*
X134036000Y-126416000D03*
D10*
X139116000Y-136830000D03*
D16*
X139370000Y-106858000D03*
X139370000Y-111938000D03*
X139370000Y-114478000D03*
X139370000Y-117018000D03*
X134290000Y-117018000D03*
X134290000Y-114478000D03*
X134290000Y-111938000D03*
X134290000Y-106858000D03*
X122860000Y-106858000D03*
X122860000Y-111938000D03*
X122860000Y-114478000D03*
X122860000Y-117018000D03*
X117780000Y-117018000D03*
X117780000Y-114478000D03*
X117780000Y-111938000D03*
X117780000Y-106858000D03*
D17*
X168860000Y-141860000D03*
X168860000Y-111860000D03*
X104860000Y-141860000D03*
X104860000Y-111860000D03*
D18*
X123368000Y-117018000D02*
X122860000Y-117018000D01*
X128448000Y-111938000D02*
X123368000Y-117018000D01*
X127940000Y-120066000D02*
X128448000Y-119558000D01*
X127940000Y-126924000D02*
X127940000Y-120066000D01*
X132889081Y-114478000D02*
X134290000Y-114478000D01*
X132258000Y-115109081D02*
X132889081Y-114478000D01*
X132258000Y-119050000D02*
X132258000Y-115109081D01*
X134036000Y-120828000D02*
X132258000Y-119050000D01*
X134036000Y-126416000D02*
X134036000Y-120828000D01*
X134036000Y-136830000D02*
X134036000Y-131750000D01*
X137969081Y-114478000D02*
X139370000Y-114478000D01*
X136230601Y-116216480D02*
X137969081Y-114478000D01*
X136230601Y-127579743D02*
X136230601Y-116216480D01*
X134036000Y-129774344D02*
X136230601Y-127579743D01*
X134036000Y-131750000D02*
X134036000Y-129774344D01*
X115367001Y-130607001D02*
X116764000Y-132004000D01*
X114416999Y-129656999D02*
X115367001Y-130607001D01*
X114416999Y-126183437D02*
X114416999Y-129656999D01*
X111938000Y-123704438D02*
X114416999Y-126183437D01*
X111938000Y-119558000D02*
X111938000Y-123704438D01*
X117018000Y-117018000D02*
X117780000Y-117018000D01*
X111938000Y-111938000D02*
X117018000Y-117018000D01*
X119812000Y-128956000D02*
X122860000Y-132004000D01*
X119812000Y-115109081D02*
X119812000Y-128956000D01*
X117780000Y-114478000D02*
X119180919Y-114478000D01*
X119180919Y-114478000D02*
X119812000Y-115109081D01*
D19*
G36*
X163318674Y-101043521D02*
G01*
X163759883Y-101176730D01*
X164166808Y-101393096D01*
X164523961Y-101684383D01*
X164817732Y-102039491D01*
X165036936Y-102444900D01*
X165173220Y-102885163D01*
X165224500Y-103373058D01*
X165224501Y-104891211D01*
X165227320Y-104919828D01*
X165227189Y-104938541D01*
X165228054Y-104947372D01*
X165289255Y-105529661D01*
X165300830Y-105586047D01*
X165311630Y-105642663D01*
X165314195Y-105651157D01*
X165487332Y-106210471D01*
X165509651Y-106263566D01*
X165531228Y-106316971D01*
X165535394Y-106324806D01*
X165813870Y-106839837D01*
X165846078Y-106887587D01*
X165877618Y-106935786D01*
X165883226Y-106942662D01*
X166256436Y-107393795D01*
X166297285Y-107434360D01*
X166337605Y-107475533D01*
X166344442Y-107481189D01*
X166798170Y-107851241D01*
X166846135Y-107883109D01*
X166893671Y-107915657D01*
X166901476Y-107919877D01*
X167418441Y-108194752D01*
X167471700Y-108216704D01*
X167524633Y-108239391D01*
X167533110Y-108242015D01*
X168093617Y-108411242D01*
X168150136Y-108422433D01*
X168206458Y-108434404D01*
X168215283Y-108435332D01*
X168797985Y-108492467D01*
X168797986Y-108492467D01*
X169512911Y-108562566D01*
X170140950Y-108752182D01*
X170720201Y-109060175D01*
X171228595Y-109474812D01*
X171646769Y-109980298D01*
X171958801Y-110557388D01*
X172152795Y-111184086D01*
X172224500Y-111866308D01*
X172224501Y-141828909D01*
X172157435Y-142512907D01*
X171967819Y-143140948D01*
X171659826Y-143720198D01*
X171245190Y-144228593D01*
X170739700Y-144646770D01*
X170162613Y-144958800D01*
X169535918Y-145152795D01*
X168853514Y-145224519D01*
X168836841Y-145224577D01*
X168809219Y-145227383D01*
X168781459Y-145227189D01*
X168772628Y-145228054D01*
X168190338Y-145289255D01*
X168133932Y-145300834D01*
X168077338Y-145311630D01*
X168068843Y-145314195D01*
X167509530Y-145487332D01*
X167456447Y-145509646D01*
X167403029Y-145531228D01*
X167395194Y-145535394D01*
X166880162Y-145813870D01*
X166832418Y-145846074D01*
X166784214Y-145877618D01*
X166777338Y-145883226D01*
X166326205Y-146256436D01*
X166285640Y-146297285D01*
X166244467Y-146337605D01*
X166238811Y-146344442D01*
X165868759Y-146798170D01*
X165836901Y-146846120D01*
X165804343Y-146893671D01*
X165800123Y-146901476D01*
X165525249Y-147418440D01*
X165503304Y-147471681D01*
X165480609Y-147524633D01*
X165477985Y-147533110D01*
X165308758Y-148093618D01*
X165297567Y-148150135D01*
X165285596Y-148206458D01*
X165284668Y-148215283D01*
X165227533Y-148797986D01*
X165227533Y-148798004D01*
X165224501Y-148828789D01*
X165224500Y-150328918D01*
X165176479Y-150818674D01*
X165043270Y-151259882D01*
X164826905Y-151666807D01*
X164535617Y-152023961D01*
X164180509Y-152317732D01*
X163775098Y-152536936D01*
X163334839Y-152673220D01*
X162846941Y-152724500D01*
X144459749Y-152724500D01*
X144457340Y-152723988D01*
X144448453Y-152723054D01*
X143733964Y-152652998D01*
X143106773Y-152463637D01*
X142528304Y-152156060D01*
X142020591Y-151741978D01*
X141602979Y-151237172D01*
X141291368Y-150660861D01*
X141097634Y-150035006D01*
X141022591Y-149321026D01*
X141021943Y-149317868D01*
X141021500Y-149313509D01*
X141021500Y-148356394D01*
X157708800Y-148356394D01*
X157708800Y-148671606D01*
X157770294Y-148980761D01*
X157890921Y-149271979D01*
X158066043Y-149534068D01*
X158288932Y-149756957D01*
X158551021Y-149932079D01*
X158842239Y-150052706D01*
X159151394Y-150114200D01*
X159466606Y-150114200D01*
X159775761Y-150052706D01*
X160066979Y-149932079D01*
X160329068Y-149756957D01*
X160551957Y-149534068D01*
X160727079Y-149271979D01*
X160847706Y-148980761D01*
X160909200Y-148671606D01*
X160909200Y-148356394D01*
X160847706Y-148047239D01*
X160727079Y-147756021D01*
X160551957Y-147493932D01*
X160329068Y-147271043D01*
X160066979Y-147095921D01*
X159775761Y-146975294D01*
X159466606Y-146913800D01*
X159151394Y-146913800D01*
X158842239Y-146975294D01*
X158551021Y-147095921D01*
X158288932Y-147271043D01*
X158066043Y-147493932D01*
X157890921Y-147756021D01*
X157770294Y-148047239D01*
X157708800Y-148356394D01*
X141021500Y-148356394D01*
X141021500Y-144323000D01*
X146990000Y-144323000D01*
X147014776Y-144320560D01*
X147038601Y-144313333D01*
X147060557Y-144301597D01*
X147079803Y-144285803D01*
X147095597Y-144266557D01*
X147107333Y-144244601D01*
X147114560Y-144220776D01*
X147117000Y-144196000D01*
X147117000Y-130129619D01*
X147311613Y-129892482D01*
X147488506Y-129561539D01*
X147597436Y-129202445D01*
X147625000Y-128922582D01*
X147625000Y-124925418D01*
X147597436Y-124645555D01*
X147488506Y-124286461D01*
X147311613Y-123955518D01*
X147073556Y-123665444D01*
X146783482Y-123427387D01*
X146452538Y-123250494D01*
X146093444Y-123141564D01*
X145720000Y-123104783D01*
X145346555Y-123141564D01*
X144987461Y-123250494D01*
X144656518Y-123427387D01*
X144366444Y-123665444D01*
X144128387Y-123955518D01*
X143951494Y-124286462D01*
X143842564Y-124645556D01*
X143815000Y-124925419D01*
X143815001Y-127813000D01*
X137599328Y-127813000D01*
X137615601Y-127647780D01*
X137615601Y-127647771D01*
X137622301Y-127579744D01*
X137615601Y-127511717D01*
X137615601Y-116790165D01*
X137793197Y-116612569D01*
X137744400Y-116857892D01*
X137744400Y-117178108D01*
X137806870Y-117492170D01*
X137929412Y-117788011D01*
X138107314Y-118054260D01*
X138333740Y-118280686D01*
X138599989Y-118458588D01*
X138895830Y-118581130D01*
X139209892Y-118643600D01*
X139530108Y-118643600D01*
X139844170Y-118581130D01*
X140140011Y-118458588D01*
X140406260Y-118280686D01*
X140632686Y-118054260D01*
X140810588Y-117788011D01*
X140933130Y-117492170D01*
X140995600Y-117178108D01*
X140995600Y-116857892D01*
X140933130Y-116543830D01*
X140810588Y-116247989D01*
X140632686Y-115981740D01*
X140406260Y-115755314D01*
X140395314Y-115748000D01*
X140406260Y-115740686D01*
X140632686Y-115514260D01*
X140810588Y-115248011D01*
X140933130Y-114952170D01*
X140995600Y-114638108D01*
X140995600Y-114317892D01*
X140933130Y-114003830D01*
X140810588Y-113707989D01*
X140632686Y-113441740D01*
X140406260Y-113215314D01*
X140395314Y-113208000D01*
X140406260Y-113200686D01*
X140632686Y-112974260D01*
X140810588Y-112708011D01*
X140933130Y-112412170D01*
X140995600Y-112098108D01*
X140995600Y-111777892D01*
X140933130Y-111463830D01*
X140810588Y-111167989D01*
X140632686Y-110901740D01*
X140406260Y-110675314D01*
X140140011Y-110497412D01*
X139844170Y-110374870D01*
X139530108Y-110312400D01*
X139209892Y-110312400D01*
X138895830Y-110374870D01*
X138599989Y-110497412D01*
X138333740Y-110675314D01*
X138107314Y-110901740D01*
X137929412Y-111167989D01*
X137806870Y-111463830D01*
X137744400Y-111777892D01*
X137744400Y-112098108D01*
X137806870Y-112412170D01*
X137929412Y-112708011D01*
X138107314Y-112974260D01*
X138226054Y-113093000D01*
X138037110Y-113093000D01*
X137969081Y-113086300D01*
X137901052Y-113093000D01*
X137901044Y-113093000D01*
X137720973Y-113110735D01*
X137697573Y-113113040D01*
X137436500Y-113192236D01*
X137195893Y-113320843D01*
X137195891Y-113320844D01*
X137195892Y-113320844D01*
X137037847Y-113450548D01*
X137037845Y-113450550D01*
X136985000Y-113493919D01*
X136941631Y-113546764D01*
X135915600Y-114572796D01*
X135915600Y-114317892D01*
X135853130Y-114003830D01*
X135730588Y-113707989D01*
X135552686Y-113441740D01*
X135326260Y-113215314D01*
X135315314Y-113208000D01*
X135326260Y-113200686D01*
X135552686Y-112974260D01*
X135730588Y-112708011D01*
X135853130Y-112412170D01*
X135915600Y-112098108D01*
X135915600Y-111777892D01*
X135853130Y-111463830D01*
X135730588Y-111167989D01*
X135552686Y-110901740D01*
X135326260Y-110675314D01*
X135060011Y-110497412D01*
X134764170Y-110374870D01*
X134450108Y-110312400D01*
X134129892Y-110312400D01*
X133815830Y-110374870D01*
X133519989Y-110497412D01*
X133253740Y-110675314D01*
X133027314Y-110901740D01*
X132849412Y-111167989D01*
X132726870Y-111463830D01*
X132708338Y-111557000D01*
X130055559Y-111557000D01*
X130035553Y-111456421D01*
X129911097Y-111155958D01*
X129730415Y-110885549D01*
X129500451Y-110655585D01*
X129230042Y-110474903D01*
X128929579Y-110350447D01*
X128610609Y-110287000D01*
X128285391Y-110287000D01*
X127966421Y-110350447D01*
X127665958Y-110474903D01*
X127395549Y-110655585D01*
X127165585Y-110885549D01*
X126984903Y-111155958D01*
X126860447Y-111456421D01*
X126840441Y-111557000D01*
X124441662Y-111557000D01*
X124423130Y-111463830D01*
X124300588Y-111167989D01*
X124122686Y-110901740D01*
X123896260Y-110675314D01*
X123630011Y-110497412D01*
X123334170Y-110374870D01*
X123020108Y-110312400D01*
X122699892Y-110312400D01*
X122385830Y-110374870D01*
X122089989Y-110497412D01*
X121823740Y-110675314D01*
X121597314Y-110901740D01*
X121419412Y-111167989D01*
X121296870Y-111463830D01*
X121278338Y-111557000D01*
X119361662Y-111557000D01*
X119343130Y-111463830D01*
X119220588Y-111167989D01*
X119042686Y-110901740D01*
X118816260Y-110675314D01*
X118550011Y-110497412D01*
X118254170Y-110374870D01*
X117940108Y-110312400D01*
X117619892Y-110312400D01*
X117305830Y-110374870D01*
X117009989Y-110497412D01*
X116743740Y-110675314D01*
X116517314Y-110901740D01*
X116339412Y-111167989D01*
X116216870Y-111463830D01*
X116198338Y-111557000D01*
X113545559Y-111557000D01*
X113525553Y-111456421D01*
X113401097Y-111155958D01*
X113220415Y-110885549D01*
X112990451Y-110655585D01*
X112720042Y-110474903D01*
X112419579Y-110350447D01*
X112100609Y-110287000D01*
X111775391Y-110287000D01*
X111456421Y-110350447D01*
X111155958Y-110474903D01*
X110885549Y-110655585D01*
X110655585Y-110885549D01*
X110474903Y-111155958D01*
X110350447Y-111456421D01*
X110330441Y-111557000D01*
X108035000Y-111557000D01*
X108035000Y-111547290D01*
X107912986Y-110933887D01*
X107673648Y-110356074D01*
X107326183Y-109836056D01*
X106883944Y-109393817D01*
X106363926Y-109046352D01*
X105786113Y-108807014D01*
X105172710Y-108685000D01*
X104953000Y-108685000D01*
X104953000Y-108491354D01*
X105529661Y-108430745D01*
X105586047Y-108419170D01*
X105642663Y-108408370D01*
X105651157Y-108405805D01*
X106210471Y-108232668D01*
X106263566Y-108210349D01*
X106316971Y-108188772D01*
X106324806Y-108184606D01*
X106839837Y-107906130D01*
X106887587Y-107873922D01*
X106935786Y-107842382D01*
X106942662Y-107836774D01*
X107393795Y-107463564D01*
X107434360Y-107422715D01*
X107475533Y-107382395D01*
X107481189Y-107375558D01*
X107851241Y-106921830D01*
X107883109Y-106873865D01*
X107915657Y-106826329D01*
X107919877Y-106818524D01*
X107984018Y-106697892D01*
X121234400Y-106697892D01*
X121234400Y-107018108D01*
X121296870Y-107332170D01*
X121419412Y-107628011D01*
X121597314Y-107894260D01*
X121823740Y-108120686D01*
X122089989Y-108298588D01*
X122385830Y-108421130D01*
X122699892Y-108483600D01*
X123020108Y-108483600D01*
X123334170Y-108421130D01*
X123630011Y-108298588D01*
X123896260Y-108120686D01*
X124122686Y-107894260D01*
X124300588Y-107628011D01*
X124423130Y-107332170D01*
X124485600Y-107018108D01*
X124485600Y-106697892D01*
X137744400Y-106697892D01*
X137744400Y-107018108D01*
X137806870Y-107332170D01*
X137929412Y-107628011D01*
X138107314Y-107894260D01*
X138333740Y-108120686D01*
X138599989Y-108298588D01*
X138895830Y-108421130D01*
X139209892Y-108483600D01*
X139530108Y-108483600D01*
X139844170Y-108421130D01*
X140140011Y-108298588D01*
X140406260Y-108120686D01*
X140632686Y-107894260D01*
X140646223Y-107874000D01*
X149145426Y-107874000D01*
X149148500Y-107905211D01*
X149148501Y-145942779D01*
X149145426Y-145974000D01*
X149157696Y-146098580D01*
X149194035Y-146218372D01*
X149253045Y-146328773D01*
X149332460Y-146425540D01*
X149429227Y-146504955D01*
X149539628Y-146563965D01*
X149659420Y-146600304D01*
X149752789Y-146609500D01*
X149784000Y-146612574D01*
X149815211Y-146609500D01*
X160928789Y-146609500D01*
X160960000Y-146612574D01*
X160991211Y-146609500D01*
X161084580Y-146600304D01*
X161204372Y-146563965D01*
X161314773Y-146504955D01*
X161411540Y-146425540D01*
X161490955Y-146328773D01*
X161549965Y-146218372D01*
X161586304Y-146098580D01*
X161598574Y-145974000D01*
X161595500Y-145942789D01*
X161595500Y-141547290D01*
X165685000Y-141547290D01*
X165685000Y-142172710D01*
X165807014Y-142786113D01*
X166046352Y-143363926D01*
X166393817Y-143883944D01*
X166836056Y-144326183D01*
X167356074Y-144673648D01*
X167933887Y-144912986D01*
X168547290Y-145035000D01*
X169172710Y-145035000D01*
X169786113Y-144912986D01*
X170363926Y-144673648D01*
X170883944Y-144326183D01*
X171326183Y-143883944D01*
X171673648Y-143363926D01*
X171912986Y-142786113D01*
X172035000Y-142172710D01*
X172035000Y-141547290D01*
X171912986Y-140933887D01*
X171673648Y-140356074D01*
X171326183Y-139836056D01*
X170883944Y-139393817D01*
X170363926Y-139046352D01*
X169786113Y-138807014D01*
X169172710Y-138685000D01*
X168547290Y-138685000D01*
X167933887Y-138807014D01*
X167356074Y-139046352D01*
X166836056Y-139393817D01*
X166393817Y-139836056D01*
X166046352Y-140356074D01*
X165807014Y-140933887D01*
X165685000Y-141547290D01*
X161595500Y-141547290D01*
X161595500Y-124925419D01*
X163119000Y-124925419D01*
X163119001Y-128922582D01*
X163146565Y-129202445D01*
X163255495Y-129561539D01*
X163432388Y-129892482D01*
X163670445Y-130182556D01*
X163960519Y-130420613D01*
X164291462Y-130597506D01*
X164650556Y-130706436D01*
X165024000Y-130743217D01*
X165397445Y-130706436D01*
X165756539Y-130597506D01*
X166087482Y-130420613D01*
X166377556Y-130182556D01*
X166615613Y-129892482D01*
X166792506Y-129561539D01*
X166901436Y-129202445D01*
X166929000Y-128922582D01*
X166929000Y-124925418D01*
X166901436Y-124645555D01*
X166792506Y-124286461D01*
X166615613Y-123955518D01*
X166377556Y-123665444D01*
X166087482Y-123427387D01*
X165756538Y-123250494D01*
X165397444Y-123141564D01*
X165024000Y-123104783D01*
X164650555Y-123141564D01*
X164291461Y-123250494D01*
X163960518Y-123427387D01*
X163670444Y-123665444D01*
X163432387Y-123955518D01*
X163255494Y-124286462D01*
X163146564Y-124645556D01*
X163119000Y-124925419D01*
X161595500Y-124925419D01*
X161595500Y-111547290D01*
X165685000Y-111547290D01*
X165685000Y-112172710D01*
X165807014Y-112786113D01*
X166046352Y-113363926D01*
X166393817Y-113883944D01*
X166836056Y-114326183D01*
X167356074Y-114673648D01*
X167933887Y-114912986D01*
X168547290Y-115035000D01*
X169172710Y-115035000D01*
X169786113Y-114912986D01*
X170363926Y-114673648D01*
X170883944Y-114326183D01*
X171326183Y-113883944D01*
X171673648Y-113363926D01*
X171912986Y-112786113D01*
X172035000Y-112172710D01*
X172035000Y-111547290D01*
X171912986Y-110933887D01*
X171673648Y-110356074D01*
X171326183Y-109836056D01*
X170883944Y-109393817D01*
X170363926Y-109046352D01*
X169786113Y-108807014D01*
X169172710Y-108685000D01*
X168547290Y-108685000D01*
X167933887Y-108807014D01*
X167356074Y-109046352D01*
X166836056Y-109393817D01*
X166393817Y-109836056D01*
X166046352Y-110356074D01*
X165807014Y-110933887D01*
X165685000Y-111547290D01*
X161595500Y-111547290D01*
X161595500Y-107905211D01*
X161598574Y-107874000D01*
X161586304Y-107749420D01*
X161549965Y-107629628D01*
X161490955Y-107519227D01*
X161411540Y-107422460D01*
X161314773Y-107343045D01*
X161204372Y-107284035D01*
X161084580Y-107247696D01*
X160991211Y-107238500D01*
X160960000Y-107235426D01*
X160928789Y-107238500D01*
X149815211Y-107238500D01*
X149784000Y-107235426D01*
X149752789Y-107238500D01*
X149659420Y-107247696D01*
X149539628Y-107284035D01*
X149429227Y-107343045D01*
X149332460Y-107422460D01*
X149253045Y-107519227D01*
X149194035Y-107629628D01*
X149157696Y-107749420D01*
X149145426Y-107874000D01*
X140646223Y-107874000D01*
X140810588Y-107628011D01*
X140933130Y-107332170D01*
X140995600Y-107018108D01*
X140995600Y-106697892D01*
X140933130Y-106383830D01*
X140810588Y-106087989D01*
X140632686Y-105821740D01*
X140406260Y-105595314D01*
X140140011Y-105417412D01*
X139844170Y-105294870D01*
X139530108Y-105232400D01*
X139209892Y-105232400D01*
X138895830Y-105294870D01*
X138599989Y-105417412D01*
X138333740Y-105595314D01*
X138107314Y-105821740D01*
X137929412Y-106087989D01*
X137806870Y-106383830D01*
X137744400Y-106697892D01*
X124485600Y-106697892D01*
X124423130Y-106383830D01*
X124300588Y-106087989D01*
X124122686Y-105821740D01*
X123896260Y-105595314D01*
X123630011Y-105417412D01*
X123334170Y-105294870D01*
X123020108Y-105232400D01*
X122699892Y-105232400D01*
X122385830Y-105294870D01*
X122089989Y-105417412D01*
X121823740Y-105595314D01*
X121597314Y-105821740D01*
X121419412Y-106087989D01*
X121296870Y-106383830D01*
X121234400Y-106697892D01*
X107984018Y-106697892D01*
X108194752Y-106301559D01*
X108216704Y-106248300D01*
X108239391Y-106195367D01*
X108242015Y-106186890D01*
X108411242Y-105626383D01*
X108422433Y-105569864D01*
X108434404Y-105513542D01*
X108435332Y-105504717D01*
X108492467Y-104922015D01*
X108492467Y-104922006D01*
X108495500Y-104891211D01*
X108495500Y-103391081D01*
X108543521Y-102901326D01*
X108676730Y-102460117D01*
X108893096Y-102053192D01*
X109184383Y-101696039D01*
X109539491Y-101402268D01*
X109944900Y-101183064D01*
X110385163Y-101046780D01*
X110873058Y-100995500D01*
X162828919Y-100995500D01*
X163318674Y-101043521D01*
X163318674Y-101043521D01*
G37*
X163318674Y-101043521D02*
X163759883Y-101176730D01*
X164166808Y-101393096D01*
X164523961Y-101684383D01*
X164817732Y-102039491D01*
X165036936Y-102444900D01*
X165173220Y-102885163D01*
X165224500Y-103373058D01*
X165224501Y-104891211D01*
X165227320Y-104919828D01*
X165227189Y-104938541D01*
X165228054Y-104947372D01*
X165289255Y-105529661D01*
X165300830Y-105586047D01*
X165311630Y-105642663D01*
X165314195Y-105651157D01*
X165487332Y-106210471D01*
X165509651Y-106263566D01*
X165531228Y-106316971D01*
X165535394Y-106324806D01*
X165813870Y-106839837D01*
X165846078Y-106887587D01*
X165877618Y-106935786D01*
X165883226Y-106942662D01*
X166256436Y-107393795D01*
X166297285Y-107434360D01*
X166337605Y-107475533D01*
X166344442Y-107481189D01*
X166798170Y-107851241D01*
X166846135Y-107883109D01*
X166893671Y-107915657D01*
X166901476Y-107919877D01*
X167418441Y-108194752D01*
X167471700Y-108216704D01*
X167524633Y-108239391D01*
X167533110Y-108242015D01*
X168093617Y-108411242D01*
X168150136Y-108422433D01*
X168206458Y-108434404D01*
X168215283Y-108435332D01*
X168797985Y-108492467D01*
X168797986Y-108492467D01*
X169512911Y-108562566D01*
X170140950Y-108752182D01*
X170720201Y-109060175D01*
X171228595Y-109474812D01*
X171646769Y-109980298D01*
X171958801Y-110557388D01*
X172152795Y-111184086D01*
X172224500Y-111866308D01*
X172224501Y-141828909D01*
X172157435Y-142512907D01*
X171967819Y-143140948D01*
X171659826Y-143720198D01*
X171245190Y-144228593D01*
X170739700Y-144646770D01*
X170162613Y-144958800D01*
X169535918Y-145152795D01*
X168853514Y-145224519D01*
X168836841Y-145224577D01*
X168809219Y-145227383D01*
X168781459Y-145227189D01*
X168772628Y-145228054D01*
X168190338Y-145289255D01*
X168133932Y-145300834D01*
X168077338Y-145311630D01*
X168068843Y-145314195D01*
X167509530Y-145487332D01*
X167456447Y-145509646D01*
X167403029Y-145531228D01*
X167395194Y-145535394D01*
X166880162Y-145813870D01*
X166832418Y-145846074D01*
X166784214Y-145877618D01*
X166777338Y-145883226D01*
X166326205Y-146256436D01*
X166285640Y-146297285D01*
X166244467Y-146337605D01*
X166238811Y-146344442D01*
X165868759Y-146798170D01*
X165836901Y-146846120D01*
X165804343Y-146893671D01*
X165800123Y-146901476D01*
X165525249Y-147418440D01*
X165503304Y-147471681D01*
X165480609Y-147524633D01*
X165477985Y-147533110D01*
X165308758Y-148093618D01*
X165297567Y-148150135D01*
X165285596Y-148206458D01*
X165284668Y-148215283D01*
X165227533Y-148797986D01*
X165227533Y-148798004D01*
X165224501Y-148828789D01*
X165224500Y-150328918D01*
X165176479Y-150818674D01*
X165043270Y-151259882D01*
X164826905Y-151666807D01*
X164535617Y-152023961D01*
X164180509Y-152317732D01*
X163775098Y-152536936D01*
X163334839Y-152673220D01*
X162846941Y-152724500D01*
X144459749Y-152724500D01*
X144457340Y-152723988D01*
X144448453Y-152723054D01*
X143733964Y-152652998D01*
X143106773Y-152463637D01*
X142528304Y-152156060D01*
X142020591Y-151741978D01*
X141602979Y-151237172D01*
X141291368Y-150660861D01*
X141097634Y-150035006D01*
X141022591Y-149321026D01*
X141021943Y-149317868D01*
X141021500Y-149313509D01*
X141021500Y-148356394D01*
X157708800Y-148356394D01*
X157708800Y-148671606D01*
X157770294Y-148980761D01*
X157890921Y-149271979D01*
X158066043Y-149534068D01*
X158288932Y-149756957D01*
X158551021Y-149932079D01*
X158842239Y-150052706D01*
X159151394Y-150114200D01*
X159466606Y-150114200D01*
X159775761Y-150052706D01*
X160066979Y-149932079D01*
X160329068Y-149756957D01*
X160551957Y-149534068D01*
X160727079Y-149271979D01*
X160847706Y-148980761D01*
X160909200Y-148671606D01*
X160909200Y-148356394D01*
X160847706Y-148047239D01*
X160727079Y-147756021D01*
X160551957Y-147493932D01*
X160329068Y-147271043D01*
X160066979Y-147095921D01*
X159775761Y-146975294D01*
X159466606Y-146913800D01*
X159151394Y-146913800D01*
X158842239Y-146975294D01*
X158551021Y-147095921D01*
X158288932Y-147271043D01*
X158066043Y-147493932D01*
X157890921Y-147756021D01*
X157770294Y-148047239D01*
X157708800Y-148356394D01*
X141021500Y-148356394D01*
X141021500Y-144323000D01*
X146990000Y-144323000D01*
X147014776Y-144320560D01*
X147038601Y-144313333D01*
X147060557Y-144301597D01*
X147079803Y-144285803D01*
X147095597Y-144266557D01*
X147107333Y-144244601D01*
X147114560Y-144220776D01*
X147117000Y-144196000D01*
X147117000Y-130129619D01*
X147311613Y-129892482D01*
X147488506Y-129561539D01*
X147597436Y-129202445D01*
X147625000Y-128922582D01*
X147625000Y-124925418D01*
X147597436Y-124645555D01*
X147488506Y-124286461D01*
X147311613Y-123955518D01*
X147073556Y-123665444D01*
X146783482Y-123427387D01*
X146452538Y-123250494D01*
X146093444Y-123141564D01*
X145720000Y-123104783D01*
X145346555Y-123141564D01*
X144987461Y-123250494D01*
X144656518Y-123427387D01*
X144366444Y-123665444D01*
X144128387Y-123955518D01*
X143951494Y-124286462D01*
X143842564Y-124645556D01*
X143815000Y-124925419D01*
X143815001Y-127813000D01*
X137599328Y-127813000D01*
X137615601Y-127647780D01*
X137615601Y-127647771D01*
X137622301Y-127579744D01*
X137615601Y-127511717D01*
X137615601Y-116790165D01*
X137793197Y-116612569D01*
X137744400Y-116857892D01*
X137744400Y-117178108D01*
X137806870Y-117492170D01*
X137929412Y-117788011D01*
X138107314Y-118054260D01*
X138333740Y-118280686D01*
X138599989Y-118458588D01*
X138895830Y-118581130D01*
X139209892Y-118643600D01*
X139530108Y-118643600D01*
X139844170Y-118581130D01*
X140140011Y-118458588D01*
X140406260Y-118280686D01*
X140632686Y-118054260D01*
X140810588Y-117788011D01*
X140933130Y-117492170D01*
X140995600Y-117178108D01*
X140995600Y-116857892D01*
X140933130Y-116543830D01*
X140810588Y-116247989D01*
X140632686Y-115981740D01*
X140406260Y-115755314D01*
X140395314Y-115748000D01*
X140406260Y-115740686D01*
X140632686Y-115514260D01*
X140810588Y-115248011D01*
X140933130Y-114952170D01*
X140995600Y-114638108D01*
X140995600Y-114317892D01*
X140933130Y-114003830D01*
X140810588Y-113707989D01*
X140632686Y-113441740D01*
X140406260Y-113215314D01*
X140395314Y-113208000D01*
X140406260Y-113200686D01*
X140632686Y-112974260D01*
X140810588Y-112708011D01*
X140933130Y-112412170D01*
X140995600Y-112098108D01*
X140995600Y-111777892D01*
X140933130Y-111463830D01*
X140810588Y-111167989D01*
X140632686Y-110901740D01*
X140406260Y-110675314D01*
X140140011Y-110497412D01*
X139844170Y-110374870D01*
X139530108Y-110312400D01*
X139209892Y-110312400D01*
X138895830Y-110374870D01*
X138599989Y-110497412D01*
X138333740Y-110675314D01*
X138107314Y-110901740D01*
X137929412Y-111167989D01*
X137806870Y-111463830D01*
X137744400Y-111777892D01*
X137744400Y-112098108D01*
X137806870Y-112412170D01*
X137929412Y-112708011D01*
X138107314Y-112974260D01*
X138226054Y-113093000D01*
X138037110Y-113093000D01*
X137969081Y-113086300D01*
X137901052Y-113093000D01*
X137901044Y-113093000D01*
X137720973Y-113110735D01*
X137697573Y-113113040D01*
X137436500Y-113192236D01*
X137195893Y-113320843D01*
X137195891Y-113320844D01*
X137195892Y-113320844D01*
X137037847Y-113450548D01*
X137037845Y-113450550D01*
X136985000Y-113493919D01*
X136941631Y-113546764D01*
X135915600Y-114572796D01*
X135915600Y-114317892D01*
X135853130Y-114003830D01*
X135730588Y-113707989D01*
X135552686Y-113441740D01*
X135326260Y-113215314D01*
X135315314Y-113208000D01*
X135326260Y-113200686D01*
X135552686Y-112974260D01*
X135730588Y-112708011D01*
X135853130Y-112412170D01*
X135915600Y-112098108D01*
X135915600Y-111777892D01*
X135853130Y-111463830D01*
X135730588Y-111167989D01*
X135552686Y-110901740D01*
X135326260Y-110675314D01*
X135060011Y-110497412D01*
X134764170Y-110374870D01*
X134450108Y-110312400D01*
X134129892Y-110312400D01*
X133815830Y-110374870D01*
X133519989Y-110497412D01*
X133253740Y-110675314D01*
X133027314Y-110901740D01*
X132849412Y-111167989D01*
X132726870Y-111463830D01*
X132708338Y-111557000D01*
X130055559Y-111557000D01*
X130035553Y-111456421D01*
X129911097Y-111155958D01*
X129730415Y-110885549D01*
X129500451Y-110655585D01*
X129230042Y-110474903D01*
X128929579Y-110350447D01*
X128610609Y-110287000D01*
X128285391Y-110287000D01*
X127966421Y-110350447D01*
X127665958Y-110474903D01*
X127395549Y-110655585D01*
X127165585Y-110885549D01*
X126984903Y-111155958D01*
X126860447Y-111456421D01*
X126840441Y-111557000D01*
X124441662Y-111557000D01*
X124423130Y-111463830D01*
X124300588Y-111167989D01*
X124122686Y-110901740D01*
X123896260Y-110675314D01*
X123630011Y-110497412D01*
X123334170Y-110374870D01*
X123020108Y-110312400D01*
X122699892Y-110312400D01*
X122385830Y-110374870D01*
X122089989Y-110497412D01*
X121823740Y-110675314D01*
X121597314Y-110901740D01*
X121419412Y-111167989D01*
X121296870Y-111463830D01*
X121278338Y-111557000D01*
X119361662Y-111557000D01*
X119343130Y-111463830D01*
X119220588Y-111167989D01*
X119042686Y-110901740D01*
X118816260Y-110675314D01*
X118550011Y-110497412D01*
X118254170Y-110374870D01*
X117940108Y-110312400D01*
X117619892Y-110312400D01*
X117305830Y-110374870D01*
X117009989Y-110497412D01*
X116743740Y-110675314D01*
X116517314Y-110901740D01*
X116339412Y-111167989D01*
X116216870Y-111463830D01*
X116198338Y-111557000D01*
X113545559Y-111557000D01*
X113525553Y-111456421D01*
X113401097Y-111155958D01*
X113220415Y-110885549D01*
X112990451Y-110655585D01*
X112720042Y-110474903D01*
X112419579Y-110350447D01*
X112100609Y-110287000D01*
X111775391Y-110287000D01*
X111456421Y-110350447D01*
X111155958Y-110474903D01*
X110885549Y-110655585D01*
X110655585Y-110885549D01*
X110474903Y-111155958D01*
X110350447Y-111456421D01*
X110330441Y-111557000D01*
X108035000Y-111557000D01*
X108035000Y-111547290D01*
X107912986Y-110933887D01*
X107673648Y-110356074D01*
X107326183Y-109836056D01*
X106883944Y-109393817D01*
X106363926Y-109046352D01*
X105786113Y-108807014D01*
X105172710Y-108685000D01*
X104953000Y-108685000D01*
X104953000Y-108491354D01*
X105529661Y-108430745D01*
X105586047Y-108419170D01*
X105642663Y-108408370D01*
X105651157Y-108405805D01*
X106210471Y-108232668D01*
X106263566Y-108210349D01*
X106316971Y-108188772D01*
X106324806Y-108184606D01*
X106839837Y-107906130D01*
X106887587Y-107873922D01*
X106935786Y-107842382D01*
X106942662Y-107836774D01*
X107393795Y-107463564D01*
X107434360Y-107422715D01*
X107475533Y-107382395D01*
X107481189Y-107375558D01*
X107851241Y-106921830D01*
X107883109Y-106873865D01*
X107915657Y-106826329D01*
X107919877Y-106818524D01*
X107984018Y-106697892D01*
X121234400Y-106697892D01*
X121234400Y-107018108D01*
X121296870Y-107332170D01*
X121419412Y-107628011D01*
X121597314Y-107894260D01*
X121823740Y-108120686D01*
X122089989Y-108298588D01*
X122385830Y-108421130D01*
X122699892Y-108483600D01*
X123020108Y-108483600D01*
X123334170Y-108421130D01*
X123630011Y-108298588D01*
X123896260Y-108120686D01*
X124122686Y-107894260D01*
X124300588Y-107628011D01*
X124423130Y-107332170D01*
X124485600Y-107018108D01*
X124485600Y-106697892D01*
X137744400Y-106697892D01*
X137744400Y-107018108D01*
X137806870Y-107332170D01*
X137929412Y-107628011D01*
X138107314Y-107894260D01*
X138333740Y-108120686D01*
X138599989Y-108298588D01*
X138895830Y-108421130D01*
X139209892Y-108483600D01*
X139530108Y-108483600D01*
X139844170Y-108421130D01*
X140140011Y-108298588D01*
X140406260Y-108120686D01*
X140632686Y-107894260D01*
X140646223Y-107874000D01*
X149145426Y-107874000D01*
X149148500Y-107905211D01*
X149148501Y-145942779D01*
X149145426Y-145974000D01*
X149157696Y-146098580D01*
X149194035Y-146218372D01*
X149253045Y-146328773D01*
X149332460Y-146425540D01*
X149429227Y-146504955D01*
X149539628Y-146563965D01*
X149659420Y-146600304D01*
X149752789Y-146609500D01*
X149784000Y-146612574D01*
X149815211Y-146609500D01*
X160928789Y-146609500D01*
X160960000Y-146612574D01*
X160991211Y-146609500D01*
X161084580Y-146600304D01*
X161204372Y-146563965D01*
X161314773Y-146504955D01*
X161411540Y-146425540D01*
X161490955Y-146328773D01*
X161549965Y-146218372D01*
X161586304Y-146098580D01*
X161598574Y-145974000D01*
X161595500Y-145942789D01*
X161595500Y-141547290D01*
X165685000Y-141547290D01*
X165685000Y-142172710D01*
X165807014Y-142786113D01*
X166046352Y-143363926D01*
X166393817Y-143883944D01*
X166836056Y-144326183D01*
X167356074Y-144673648D01*
X167933887Y-144912986D01*
X168547290Y-145035000D01*
X169172710Y-145035000D01*
X169786113Y-144912986D01*
X170363926Y-144673648D01*
X170883944Y-144326183D01*
X171326183Y-143883944D01*
X171673648Y-143363926D01*
X171912986Y-142786113D01*
X172035000Y-142172710D01*
X172035000Y-141547290D01*
X171912986Y-140933887D01*
X171673648Y-140356074D01*
X171326183Y-139836056D01*
X170883944Y-139393817D01*
X170363926Y-139046352D01*
X169786113Y-138807014D01*
X169172710Y-138685000D01*
X168547290Y-138685000D01*
X167933887Y-138807014D01*
X167356074Y-139046352D01*
X166836056Y-139393817D01*
X166393817Y-139836056D01*
X166046352Y-140356074D01*
X165807014Y-140933887D01*
X165685000Y-141547290D01*
X161595500Y-141547290D01*
X161595500Y-124925419D01*
X163119000Y-124925419D01*
X163119001Y-128922582D01*
X163146565Y-129202445D01*
X163255495Y-129561539D01*
X163432388Y-129892482D01*
X163670445Y-130182556D01*
X163960519Y-130420613D01*
X164291462Y-130597506D01*
X164650556Y-130706436D01*
X165024000Y-130743217D01*
X165397445Y-130706436D01*
X165756539Y-130597506D01*
X166087482Y-130420613D01*
X166377556Y-130182556D01*
X166615613Y-129892482D01*
X166792506Y-129561539D01*
X166901436Y-129202445D01*
X166929000Y-128922582D01*
X166929000Y-124925418D01*
X166901436Y-124645555D01*
X166792506Y-124286461D01*
X166615613Y-123955518D01*
X166377556Y-123665444D01*
X166087482Y-123427387D01*
X165756538Y-123250494D01*
X165397444Y-123141564D01*
X165024000Y-123104783D01*
X164650555Y-123141564D01*
X164291461Y-123250494D01*
X163960518Y-123427387D01*
X163670444Y-123665444D01*
X163432387Y-123955518D01*
X163255494Y-124286462D01*
X163146564Y-124645556D01*
X163119000Y-124925419D01*
X161595500Y-124925419D01*
X161595500Y-111547290D01*
X165685000Y-111547290D01*
X165685000Y-112172710D01*
X165807014Y-112786113D01*
X166046352Y-113363926D01*
X166393817Y-113883944D01*
X166836056Y-114326183D01*
X167356074Y-114673648D01*
X167933887Y-114912986D01*
X168547290Y-115035000D01*
X169172710Y-115035000D01*
X169786113Y-114912986D01*
X170363926Y-114673648D01*
X170883944Y-114326183D01*
X171326183Y-113883944D01*
X171673648Y-113363926D01*
X171912986Y-112786113D01*
X172035000Y-112172710D01*
X172035000Y-111547290D01*
X171912986Y-110933887D01*
X171673648Y-110356074D01*
X171326183Y-109836056D01*
X170883944Y-109393817D01*
X170363926Y-109046352D01*
X169786113Y-108807014D01*
X169172710Y-108685000D01*
X168547290Y-108685000D01*
X167933887Y-108807014D01*
X167356074Y-109046352D01*
X166836056Y-109393817D01*
X166393817Y-109836056D01*
X166046352Y-110356074D01*
X165807014Y-110933887D01*
X165685000Y-111547290D01*
X161595500Y-111547290D01*
X161595500Y-107905211D01*
X161598574Y-107874000D01*
X161586304Y-107749420D01*
X161549965Y-107629628D01*
X161490955Y-107519227D01*
X161411540Y-107422460D01*
X161314773Y-107343045D01*
X161204372Y-107284035D01*
X161084580Y-107247696D01*
X160991211Y-107238500D01*
X160960000Y-107235426D01*
X160928789Y-107238500D01*
X149815211Y-107238500D01*
X149784000Y-107235426D01*
X149752789Y-107238500D01*
X149659420Y-107247696D01*
X149539628Y-107284035D01*
X149429227Y-107343045D01*
X149332460Y-107422460D01*
X149253045Y-107519227D01*
X149194035Y-107629628D01*
X149157696Y-107749420D01*
X149145426Y-107874000D01*
X140646223Y-107874000D01*
X140810588Y-107628011D01*
X140933130Y-107332170D01*
X140995600Y-107018108D01*
X140995600Y-106697892D01*
X140933130Y-106383830D01*
X140810588Y-106087989D01*
X140632686Y-105821740D01*
X140406260Y-105595314D01*
X140140011Y-105417412D01*
X139844170Y-105294870D01*
X139530108Y-105232400D01*
X139209892Y-105232400D01*
X138895830Y-105294870D01*
X138599989Y-105417412D01*
X138333740Y-105595314D01*
X138107314Y-105821740D01*
X137929412Y-106087989D01*
X137806870Y-106383830D01*
X137744400Y-106697892D01*
X124485600Y-106697892D01*
X124423130Y-106383830D01*
X124300588Y-106087989D01*
X124122686Y-105821740D01*
X123896260Y-105595314D01*
X123630011Y-105417412D01*
X123334170Y-105294870D01*
X123020108Y-105232400D01*
X122699892Y-105232400D01*
X122385830Y-105294870D01*
X122089989Y-105417412D01*
X121823740Y-105595314D01*
X121597314Y-105821740D01*
X121419412Y-106087989D01*
X121296870Y-106383830D01*
X121234400Y-106697892D01*
X107984018Y-106697892D01*
X108194752Y-106301559D01*
X108216704Y-106248300D01*
X108239391Y-106195367D01*
X108242015Y-106186890D01*
X108411242Y-105626383D01*
X108422433Y-105569864D01*
X108434404Y-105513542D01*
X108435332Y-105504717D01*
X108492467Y-104922015D01*
X108492467Y-104922006D01*
X108495500Y-104891211D01*
X108495500Y-103391081D01*
X108543521Y-102901326D01*
X108676730Y-102460117D01*
X108893096Y-102053192D01*
X109184383Y-101696039D01*
X109539491Y-101402268D01*
X109944900Y-101183064D01*
X110385163Y-101046780D01*
X110873058Y-100995500D01*
X162828919Y-100995500D01*
X163318674Y-101043521D01*
G36*
X104191000Y-112446000D02*
G01*
X104193440Y-112470776D01*
X104200667Y-112494601D01*
X104212403Y-112516557D01*
X104228197Y-112535803D01*
X104247443Y-112551597D01*
X104269399Y-112563333D01*
X104293224Y-112570560D01*
X104318000Y-112573000D01*
X110413996Y-112573000D01*
X110474903Y-112720042D01*
X110655585Y-112990451D01*
X110885549Y-113220415D01*
X111155958Y-113401097D01*
X111456421Y-113525553D01*
X111594292Y-113552977D01*
X115990550Y-117949236D01*
X116033919Y-118002081D01*
X116086764Y-118045450D01*
X116086766Y-118045452D01*
X116135108Y-118085125D01*
X116244812Y-118175157D01*
X116442243Y-118280686D01*
X116485419Y-118303764D01*
X116746492Y-118382960D01*
X116769892Y-118385265D01*
X116922790Y-118400324D01*
X117009989Y-118458588D01*
X117305830Y-118581130D01*
X117619892Y-118643600D01*
X117940108Y-118643600D01*
X118254170Y-118581130D01*
X118427000Y-118509541D01*
X118427001Y-125755353D01*
X118342357Y-125628675D01*
X118059325Y-125345643D01*
X117726513Y-125123265D01*
X117356713Y-124970089D01*
X116964135Y-124892000D01*
X116563865Y-124892000D01*
X116171287Y-124970089D01*
X115801487Y-125123265D01*
X115502556Y-125323004D01*
X115444451Y-125252203D01*
X115444444Y-125252196D01*
X115401079Y-125199356D01*
X115348240Y-125155992D01*
X113323000Y-123130753D01*
X113323000Y-120456922D01*
X113401097Y-120340042D01*
X113525553Y-120039579D01*
X113589000Y-119720609D01*
X113589000Y-119395391D01*
X113525553Y-119076421D01*
X113401097Y-118775958D01*
X113220415Y-118505549D01*
X112990451Y-118275585D01*
X112720042Y-118094903D01*
X112419579Y-117970447D01*
X112100609Y-117907000D01*
X111775391Y-117907000D01*
X111456421Y-117970447D01*
X111155958Y-118094903D01*
X110885549Y-118275585D01*
X110655585Y-118505549D01*
X110474903Y-118775958D01*
X110350447Y-119076421D01*
X110287000Y-119395391D01*
X110287000Y-119720609D01*
X110350447Y-120039579D01*
X110474903Y-120340042D01*
X110553000Y-120456922D01*
X110553001Y-123636399D01*
X110546300Y-123704438D01*
X110573040Y-123975945D01*
X110652236Y-124237018D01*
X110780844Y-124477626D01*
X110910548Y-124635671D01*
X110910551Y-124635674D01*
X110953920Y-124688519D01*
X111006764Y-124731887D01*
X111219469Y-124944592D01*
X111091287Y-124970089D01*
X110721487Y-125123265D01*
X110388675Y-125345643D01*
X110105643Y-125628675D01*
X109883265Y-125961487D01*
X109730089Y-126331287D01*
X109652000Y-126723865D01*
X109652000Y-127124135D01*
X109730089Y-127516713D01*
X109883265Y-127886513D01*
X110105643Y-128219325D01*
X110388675Y-128502357D01*
X110721487Y-128724735D01*
X111091287Y-128877911D01*
X111483865Y-128956000D01*
X111884135Y-128956000D01*
X112276713Y-128877911D01*
X112646513Y-128724735D01*
X112979325Y-128502357D01*
X113032000Y-128449682D01*
X113032000Y-129588960D01*
X113025299Y-129656999D01*
X113052039Y-129928506D01*
X113131235Y-130189579D01*
X113259843Y-130430187D01*
X113389547Y-130588232D01*
X113389550Y-130588235D01*
X113432919Y-130641080D01*
X113485763Y-130684448D01*
X114435767Y-131634453D01*
X114435772Y-131634457D01*
X114732000Y-131930685D01*
X114732000Y-132204135D01*
X114810089Y-132596713D01*
X114963265Y-132966513D01*
X115185643Y-133299325D01*
X115468675Y-133582357D01*
X115801487Y-133804735D01*
X116171287Y-133957911D01*
X116563865Y-134036000D01*
X116964135Y-134036000D01*
X117356713Y-133957911D01*
X117726513Y-133804735D01*
X118059325Y-133582357D01*
X118342357Y-133299325D01*
X118564735Y-132966513D01*
X118717911Y-132596713D01*
X118796000Y-132204135D01*
X118796000Y-131803865D01*
X118717911Y-131411287D01*
X118564735Y-131041487D01*
X118342357Y-130708675D01*
X118059325Y-130425643D01*
X117726513Y-130203265D01*
X117356713Y-130050089D01*
X116964135Y-129972000D01*
X116690685Y-129972000D01*
X116394457Y-129675772D01*
X116394453Y-129675767D01*
X115801999Y-129083314D01*
X115801999Y-128724947D01*
X116171287Y-128877911D01*
X116563865Y-128956000D01*
X116964135Y-128956000D01*
X117356713Y-128877911D01*
X117726513Y-128724735D01*
X118059325Y-128502357D01*
X118342357Y-128219325D01*
X118427001Y-128092646D01*
X118427001Y-128887961D01*
X118420300Y-128956000D01*
X118447040Y-129227507D01*
X118526236Y-129488580D01*
X118654844Y-129729188D01*
X118784548Y-129887233D01*
X118784551Y-129887236D01*
X118827920Y-129940081D01*
X118880764Y-129983449D01*
X120828000Y-131930686D01*
X120828000Y-132204135D01*
X120906089Y-132596713D01*
X121059265Y-132966513D01*
X121281643Y-133299325D01*
X121564675Y-133582357D01*
X121897487Y-133804735D01*
X122267287Y-133957911D01*
X122659865Y-134036000D01*
X123060135Y-134036000D01*
X123452713Y-133957911D01*
X123822513Y-133804735D01*
X124155325Y-133582357D01*
X124438357Y-133299325D01*
X124660735Y-132966513D01*
X124813911Y-132596713D01*
X124892000Y-132204135D01*
X124892000Y-131803865D01*
X125908000Y-131803865D01*
X125908000Y-132204135D01*
X125986089Y-132596713D01*
X126139265Y-132966513D01*
X126361643Y-133299325D01*
X126644675Y-133582357D01*
X126977487Y-133804735D01*
X127347287Y-133957911D01*
X127739865Y-134036000D01*
X128140135Y-134036000D01*
X128532713Y-133957911D01*
X128902513Y-133804735D01*
X129235325Y-133582357D01*
X129518357Y-133299325D01*
X129740735Y-132966513D01*
X129893911Y-132596713D01*
X129972000Y-132204135D01*
X129972000Y-131803865D01*
X129893911Y-131411287D01*
X129740735Y-131041487D01*
X129518357Y-130708675D01*
X129235325Y-130425643D01*
X128902513Y-130203265D01*
X128532713Y-130050089D01*
X128140135Y-129972000D01*
X127739865Y-129972000D01*
X127347287Y-130050089D01*
X126977487Y-130203265D01*
X126644675Y-130425643D01*
X126361643Y-130708675D01*
X126139265Y-131041487D01*
X125986089Y-131411287D01*
X125908000Y-131803865D01*
X124892000Y-131803865D01*
X124813911Y-131411287D01*
X124660735Y-131041487D01*
X124438357Y-130708675D01*
X124155325Y-130425643D01*
X123822513Y-130203265D01*
X123452713Y-130050089D01*
X123060135Y-129972000D01*
X122786686Y-129972000D01*
X121197000Y-128382315D01*
X121197000Y-128092648D01*
X121281643Y-128219325D01*
X121564675Y-128502357D01*
X121897487Y-128724735D01*
X122267287Y-128877911D01*
X122659865Y-128956000D01*
X123060135Y-128956000D01*
X123452713Y-128877911D01*
X123822513Y-128724735D01*
X124155325Y-128502357D01*
X124438357Y-128219325D01*
X124660735Y-127886513D01*
X124813911Y-127516713D01*
X124892000Y-127124135D01*
X124892000Y-126723865D01*
X125908000Y-126723865D01*
X125908000Y-127124135D01*
X125986089Y-127516713D01*
X126139265Y-127886513D01*
X126361643Y-128219325D01*
X126644675Y-128502357D01*
X126977487Y-128724735D01*
X127347287Y-128877911D01*
X127739865Y-128956000D01*
X128140135Y-128956000D01*
X128532713Y-128877911D01*
X128902513Y-128724735D01*
X129235325Y-128502357D01*
X129518357Y-128219325D01*
X129740735Y-127886513D01*
X129893911Y-127516713D01*
X129972000Y-127124135D01*
X129972000Y-126723865D01*
X129893911Y-126331287D01*
X129740735Y-125961487D01*
X129518357Y-125628675D01*
X129325000Y-125435318D01*
X129325000Y-120957648D01*
X129500451Y-120840415D01*
X129730415Y-120610451D01*
X129911097Y-120340042D01*
X130035553Y-120039579D01*
X130099000Y-119720609D01*
X130099000Y-119395391D01*
X130035553Y-119076421D01*
X129911097Y-118775958D01*
X129730415Y-118505549D01*
X129500451Y-118275585D01*
X129230042Y-118094903D01*
X128929579Y-117970447D01*
X128610609Y-117907000D01*
X128285391Y-117907000D01*
X127966421Y-117970447D01*
X127665958Y-118094903D01*
X127395549Y-118275585D01*
X127165585Y-118505549D01*
X126984903Y-118775958D01*
X126860447Y-119076421D01*
X126828461Y-119237228D01*
X126782844Y-119292812D01*
X126654236Y-119533420D01*
X126575040Y-119794493D01*
X126548300Y-120066000D01*
X126555001Y-120134039D01*
X126555000Y-125435318D01*
X126361643Y-125628675D01*
X126139265Y-125961487D01*
X125986089Y-126331287D01*
X125908000Y-126723865D01*
X124892000Y-126723865D01*
X124813911Y-126331287D01*
X124660735Y-125961487D01*
X124438357Y-125628675D01*
X124155325Y-125345643D01*
X123822513Y-125123265D01*
X123452713Y-124970089D01*
X123060135Y-124892000D01*
X122659865Y-124892000D01*
X122267287Y-124970089D01*
X121897487Y-125123265D01*
X121564675Y-125345643D01*
X121281643Y-125628675D01*
X121197000Y-125755352D01*
X121197000Y-115177107D01*
X121203700Y-115109080D01*
X121197000Y-115041053D01*
X121197000Y-115041044D01*
X121176960Y-114837574D01*
X121097764Y-114576500D01*
X120969157Y-114335893D01*
X120796080Y-114125000D01*
X120743235Y-114081631D01*
X120208373Y-113546769D01*
X120165000Y-113493919D01*
X119954107Y-113320843D01*
X119713500Y-113192236D01*
X119452426Y-113113040D01*
X119248956Y-113093000D01*
X119248948Y-113093000D01*
X119180919Y-113086300D01*
X119112890Y-113093000D01*
X118923946Y-113093000D01*
X119042686Y-112974260D01*
X119220588Y-112708011D01*
X119276512Y-112573000D01*
X121363488Y-112573000D01*
X121419412Y-112708011D01*
X121597314Y-112974260D01*
X121823740Y-113200686D01*
X121834686Y-113208000D01*
X121823740Y-113215314D01*
X121597314Y-113441740D01*
X121419412Y-113707989D01*
X121296870Y-114003830D01*
X121234400Y-114317892D01*
X121234400Y-114638108D01*
X121296870Y-114952170D01*
X121419412Y-115248011D01*
X121597314Y-115514260D01*
X121823740Y-115740686D01*
X121834686Y-115748000D01*
X121823740Y-115755314D01*
X121597314Y-115981740D01*
X121419412Y-116247989D01*
X121296870Y-116543830D01*
X121234400Y-116857892D01*
X121234400Y-117178108D01*
X121296870Y-117492170D01*
X121419412Y-117788011D01*
X121597314Y-118054260D01*
X121823740Y-118280686D01*
X122089989Y-118458588D01*
X122385830Y-118581130D01*
X122699892Y-118643600D01*
X123020108Y-118643600D01*
X123334170Y-118581130D01*
X123630011Y-118458588D01*
X123829411Y-118325353D01*
X123900581Y-118303764D01*
X124141188Y-118175157D01*
X124352081Y-118002081D01*
X124395454Y-117949231D01*
X128791709Y-113552977D01*
X128929579Y-113525553D01*
X129230042Y-113401097D01*
X129500451Y-113220415D01*
X129730415Y-112990451D01*
X129911097Y-112720042D01*
X129972004Y-112573000D01*
X132793488Y-112573000D01*
X132849412Y-112708011D01*
X133027314Y-112974260D01*
X133146054Y-113093000D01*
X132957107Y-113093000D01*
X132889080Y-113086300D01*
X132821053Y-113093000D01*
X132821044Y-113093000D01*
X132617574Y-113113040D01*
X132356500Y-113192236D01*
X132115893Y-113320843D01*
X131905000Y-113493919D01*
X131861627Y-113546769D01*
X131326765Y-114081631D01*
X131273920Y-114125000D01*
X131230551Y-114177845D01*
X131230548Y-114177848D01*
X131100844Y-114335893D01*
X130972236Y-114576501D01*
X130893040Y-114837574D01*
X130866300Y-115109081D01*
X130873001Y-115177120D01*
X130873000Y-118981971D01*
X130866300Y-119050000D01*
X130873000Y-119118029D01*
X130873000Y-119118036D01*
X130893040Y-119321506D01*
X130972236Y-119582580D01*
X131100843Y-119823187D01*
X131273919Y-120034080D01*
X131326765Y-120077450D01*
X132651001Y-121401687D01*
X132651000Y-125777282D01*
X132570566Y-125971466D01*
X132512000Y-126265899D01*
X132512000Y-126566101D01*
X132570566Y-126860534D01*
X132685449Y-127137885D01*
X132852232Y-127387493D01*
X133064507Y-127599768D01*
X133314115Y-127766551D01*
X133591466Y-127881434D01*
X133885899Y-127940000D01*
X133911659Y-127940000D01*
X133104765Y-128746894D01*
X133051920Y-128790263D01*
X133008551Y-128843108D01*
X133008548Y-128843111D01*
X132878844Y-129001156D01*
X132750236Y-129241764D01*
X132671040Y-129502837D01*
X132644300Y-129774344D01*
X132651001Y-129842383D01*
X132651001Y-130261317D01*
X132457643Y-130454675D01*
X132235265Y-130787487D01*
X132082089Y-131157287D01*
X132004000Y-131549865D01*
X132004000Y-131950135D01*
X132082089Y-132342713D01*
X132235265Y-132712513D01*
X132457643Y-133045325D01*
X132651001Y-133238683D01*
X132651000Y-135341318D01*
X132457643Y-135534675D01*
X132235265Y-135867487D01*
X132082089Y-136237287D01*
X132004000Y-136629865D01*
X132004000Y-137030135D01*
X132082089Y-137422713D01*
X132235265Y-137792513D01*
X132457643Y-138125325D01*
X132740675Y-138408357D01*
X133073487Y-138630735D01*
X133443287Y-138783911D01*
X133835865Y-138862000D01*
X134236135Y-138862000D01*
X134628713Y-138783911D01*
X134998513Y-138630735D01*
X135331325Y-138408357D01*
X135614357Y-138125325D01*
X135836735Y-137792513D01*
X135989911Y-137422713D01*
X136068000Y-137030135D01*
X136068000Y-136629865D01*
X135989911Y-136237287D01*
X135836735Y-135867487D01*
X135614357Y-135534675D01*
X135421000Y-135341318D01*
X135421000Y-134925000D01*
X140767000Y-134925000D01*
X140767000Y-143307000D01*
X140422288Y-143307000D01*
X140417211Y-143306500D01*
X140386000Y-143303426D01*
X140354789Y-143306500D01*
X110445211Y-143306500D01*
X110414000Y-143303426D01*
X110382789Y-143306500D01*
X110289420Y-143315696D01*
X110169628Y-143352035D01*
X110059227Y-143411045D01*
X109962460Y-143490460D01*
X109883045Y-143587227D01*
X109824035Y-143697628D01*
X109787696Y-143817420D01*
X109775426Y-143942000D01*
X109778500Y-143973211D01*
X109778500Y-144828918D01*
X109768569Y-144930204D01*
X109748178Y-144997740D01*
X109715060Y-145060026D01*
X109670475Y-145114693D01*
X109616122Y-145159658D01*
X109554073Y-145193208D01*
X109486675Y-145214071D01*
X109387451Y-145224500D01*
X104891081Y-145224500D01*
X104207093Y-145157435D01*
X103579052Y-144967819D01*
X102999802Y-144659826D01*
X102491407Y-144245190D01*
X102073230Y-143739700D01*
X101761200Y-143162613D01*
X101567205Y-142535918D01*
X101495500Y-141853693D01*
X101495500Y-136883865D01*
X109652000Y-136883865D01*
X109652000Y-137284135D01*
X109730089Y-137676713D01*
X109883265Y-138046513D01*
X110105643Y-138379325D01*
X110388675Y-138662357D01*
X110721487Y-138884735D01*
X111091287Y-139037911D01*
X111483865Y-139116000D01*
X111884135Y-139116000D01*
X112276713Y-139037911D01*
X112646513Y-138884735D01*
X112979325Y-138662357D01*
X113262357Y-138379325D01*
X113484735Y-138046513D01*
X113637911Y-137676713D01*
X113716000Y-137284135D01*
X113716000Y-136883865D01*
X114732000Y-136883865D01*
X114732000Y-137284135D01*
X114810089Y-137676713D01*
X114963265Y-138046513D01*
X115185643Y-138379325D01*
X115468675Y-138662357D01*
X115801487Y-138884735D01*
X116171287Y-139037911D01*
X116563865Y-139116000D01*
X116964135Y-139116000D01*
X117356713Y-139037911D01*
X117726513Y-138884735D01*
X118059325Y-138662357D01*
X118342357Y-138379325D01*
X118564735Y-138046513D01*
X118717911Y-137676713D01*
X118796000Y-137284135D01*
X118796000Y-136883865D01*
X120828000Y-136883865D01*
X120828000Y-137284135D01*
X120906089Y-137676713D01*
X121059265Y-138046513D01*
X121281643Y-138379325D01*
X121564675Y-138662357D01*
X121897487Y-138884735D01*
X122267287Y-139037911D01*
X122659865Y-139116000D01*
X123060135Y-139116000D01*
X123452713Y-139037911D01*
X123822513Y-138884735D01*
X124155325Y-138662357D01*
X124438357Y-138379325D01*
X124660735Y-138046513D01*
X124813911Y-137676713D01*
X124892000Y-137284135D01*
X124892000Y-136883865D01*
X125908000Y-136883865D01*
X125908000Y-137284135D01*
X125986089Y-137676713D01*
X126139265Y-138046513D01*
X126361643Y-138379325D01*
X126644675Y-138662357D01*
X126977487Y-138884735D01*
X127347287Y-139037911D01*
X127739865Y-139116000D01*
X128140135Y-139116000D01*
X128532713Y-139037911D01*
X128902513Y-138884735D01*
X129235325Y-138662357D01*
X129518357Y-138379325D01*
X129740735Y-138046513D01*
X129893911Y-137676713D01*
X129972000Y-137284135D01*
X129972000Y-136883865D01*
X129893911Y-136491287D01*
X129740735Y-136121487D01*
X129518357Y-135788675D01*
X129235325Y-135505643D01*
X128902513Y-135283265D01*
X128532713Y-135130089D01*
X128140135Y-135052000D01*
X127739865Y-135052000D01*
X127347287Y-135130089D01*
X126977487Y-135283265D01*
X126644675Y-135505643D01*
X126361643Y-135788675D01*
X126139265Y-136121487D01*
X125986089Y-136491287D01*
X125908000Y-136883865D01*
X124892000Y-136883865D01*
X124813911Y-136491287D01*
X124660735Y-136121487D01*
X124438357Y-135788675D01*
X124155325Y-135505643D01*
X123822513Y-135283265D01*
X123452713Y-135130089D01*
X123060135Y-135052000D01*
X122659865Y-135052000D01*
X122267287Y-135130089D01*
X121897487Y-135283265D01*
X121564675Y-135505643D01*
X121281643Y-135788675D01*
X121059265Y-136121487D01*
X120906089Y-136491287D01*
X120828000Y-136883865D01*
X118796000Y-136883865D01*
X118717911Y-136491287D01*
X118564735Y-136121487D01*
X118342357Y-135788675D01*
X118059325Y-135505643D01*
X117726513Y-135283265D01*
X117356713Y-135130089D01*
X116964135Y-135052000D01*
X116563865Y-135052000D01*
X116171287Y-135130089D01*
X115801487Y-135283265D01*
X115468675Y-135505643D01*
X115185643Y-135788675D01*
X114963265Y-136121487D01*
X114810089Y-136491287D01*
X114732000Y-136883865D01*
X113716000Y-136883865D01*
X113637911Y-136491287D01*
X113484735Y-136121487D01*
X113262357Y-135788675D01*
X112979325Y-135505643D01*
X112646513Y-135283265D01*
X112276713Y-135130089D01*
X111884135Y-135052000D01*
X111483865Y-135052000D01*
X111091287Y-135130089D01*
X110721487Y-135283265D01*
X110388675Y-135505643D01*
X110105643Y-135788675D01*
X109883265Y-136121487D01*
X109730089Y-136491287D01*
X109652000Y-136883865D01*
X101495500Y-136883865D01*
X101495500Y-131803865D01*
X109652000Y-131803865D01*
X109652000Y-132204135D01*
X109730089Y-132596713D01*
X109883265Y-132966513D01*
X110105643Y-133299325D01*
X110388675Y-133582357D01*
X110721487Y-133804735D01*
X111091287Y-133957911D01*
X111483865Y-134036000D01*
X111884135Y-134036000D01*
X112276713Y-133957911D01*
X112646513Y-133804735D01*
X112979325Y-133582357D01*
X113262357Y-133299325D01*
X113484735Y-132966513D01*
X113637911Y-132596713D01*
X113716000Y-132204135D01*
X113716000Y-131803865D01*
X113637911Y-131411287D01*
X113484735Y-131041487D01*
X113262357Y-130708675D01*
X112979325Y-130425643D01*
X112646513Y-130203265D01*
X112276713Y-130050089D01*
X111884135Y-129972000D01*
X111483865Y-129972000D01*
X111091287Y-130050089D01*
X110721487Y-130203265D01*
X110388675Y-130425643D01*
X110105643Y-130708675D01*
X109883265Y-131041487D01*
X109730089Y-131411287D01*
X109652000Y-131803865D01*
X101495500Y-131803865D01*
X101495500Y-111891081D01*
X101562566Y-111207089D01*
X101752182Y-110579050D01*
X102060175Y-109999799D01*
X102474812Y-109491405D01*
X102980298Y-109073231D01*
X103557388Y-108761199D01*
X104184086Y-108567205D01*
X104191000Y-108566478D01*
X104191000Y-112446000D01*
X104191000Y-112446000D01*
G37*
X104191000Y-112446000D02*
X104193440Y-112470776D01*
X104200667Y-112494601D01*
X104212403Y-112516557D01*
X104228197Y-112535803D01*
X104247443Y-112551597D01*
X104269399Y-112563333D01*
X104293224Y-112570560D01*
X104318000Y-112573000D01*
X110413996Y-112573000D01*
X110474903Y-112720042D01*
X110655585Y-112990451D01*
X110885549Y-113220415D01*
X111155958Y-113401097D01*
X111456421Y-113525553D01*
X111594292Y-113552977D01*
X115990550Y-117949236D01*
X116033919Y-118002081D01*
X116086764Y-118045450D01*
X116086766Y-118045452D01*
X116135108Y-118085125D01*
X116244812Y-118175157D01*
X116442243Y-118280686D01*
X116485419Y-118303764D01*
X116746492Y-118382960D01*
X116769892Y-118385265D01*
X116922790Y-118400324D01*
X117009989Y-118458588D01*
X117305830Y-118581130D01*
X117619892Y-118643600D01*
X117940108Y-118643600D01*
X118254170Y-118581130D01*
X118427000Y-118509541D01*
X118427001Y-125755353D01*
X118342357Y-125628675D01*
X118059325Y-125345643D01*
X117726513Y-125123265D01*
X117356713Y-124970089D01*
X116964135Y-124892000D01*
X116563865Y-124892000D01*
X116171287Y-124970089D01*
X115801487Y-125123265D01*
X115502556Y-125323004D01*
X115444451Y-125252203D01*
X115444444Y-125252196D01*
X115401079Y-125199356D01*
X115348240Y-125155992D01*
X113323000Y-123130753D01*
X113323000Y-120456922D01*
X113401097Y-120340042D01*
X113525553Y-120039579D01*
X113589000Y-119720609D01*
X113589000Y-119395391D01*
X113525553Y-119076421D01*
X113401097Y-118775958D01*
X113220415Y-118505549D01*
X112990451Y-118275585D01*
X112720042Y-118094903D01*
X112419579Y-117970447D01*
X112100609Y-117907000D01*
X111775391Y-117907000D01*
X111456421Y-117970447D01*
X111155958Y-118094903D01*
X110885549Y-118275585D01*
X110655585Y-118505549D01*
X110474903Y-118775958D01*
X110350447Y-119076421D01*
X110287000Y-119395391D01*
X110287000Y-119720609D01*
X110350447Y-120039579D01*
X110474903Y-120340042D01*
X110553000Y-120456922D01*
X110553001Y-123636399D01*
X110546300Y-123704438D01*
X110573040Y-123975945D01*
X110652236Y-124237018D01*
X110780844Y-124477626D01*
X110910548Y-124635671D01*
X110910551Y-124635674D01*
X110953920Y-124688519D01*
X111006764Y-124731887D01*
X111219469Y-124944592D01*
X111091287Y-124970089D01*
X110721487Y-125123265D01*
X110388675Y-125345643D01*
X110105643Y-125628675D01*
X109883265Y-125961487D01*
X109730089Y-126331287D01*
X109652000Y-126723865D01*
X109652000Y-127124135D01*
X109730089Y-127516713D01*
X109883265Y-127886513D01*
X110105643Y-128219325D01*
X110388675Y-128502357D01*
X110721487Y-128724735D01*
X111091287Y-128877911D01*
X111483865Y-128956000D01*
X111884135Y-128956000D01*
X112276713Y-128877911D01*
X112646513Y-128724735D01*
X112979325Y-128502357D01*
X113032000Y-128449682D01*
X113032000Y-129588960D01*
X113025299Y-129656999D01*
X113052039Y-129928506D01*
X113131235Y-130189579D01*
X113259843Y-130430187D01*
X113389547Y-130588232D01*
X113389550Y-130588235D01*
X113432919Y-130641080D01*
X113485763Y-130684448D01*
X114435767Y-131634453D01*
X114435772Y-131634457D01*
X114732000Y-131930685D01*
X114732000Y-132204135D01*
X114810089Y-132596713D01*
X114963265Y-132966513D01*
X115185643Y-133299325D01*
X115468675Y-133582357D01*
X115801487Y-133804735D01*
X116171287Y-133957911D01*
X116563865Y-134036000D01*
X116964135Y-134036000D01*
X117356713Y-133957911D01*
X117726513Y-133804735D01*
X118059325Y-133582357D01*
X118342357Y-133299325D01*
X118564735Y-132966513D01*
X118717911Y-132596713D01*
X118796000Y-132204135D01*
X118796000Y-131803865D01*
X118717911Y-131411287D01*
X118564735Y-131041487D01*
X118342357Y-130708675D01*
X118059325Y-130425643D01*
X117726513Y-130203265D01*
X117356713Y-130050089D01*
X116964135Y-129972000D01*
X116690685Y-129972000D01*
X116394457Y-129675772D01*
X116394453Y-129675767D01*
X115801999Y-129083314D01*
X115801999Y-128724947D01*
X116171287Y-128877911D01*
X116563865Y-128956000D01*
X116964135Y-128956000D01*
X117356713Y-128877911D01*
X117726513Y-128724735D01*
X118059325Y-128502357D01*
X118342357Y-128219325D01*
X118427001Y-128092646D01*
X118427001Y-128887961D01*
X118420300Y-128956000D01*
X118447040Y-129227507D01*
X118526236Y-129488580D01*
X118654844Y-129729188D01*
X118784548Y-129887233D01*
X118784551Y-129887236D01*
X118827920Y-129940081D01*
X118880764Y-129983449D01*
X120828000Y-131930686D01*
X120828000Y-132204135D01*
X120906089Y-132596713D01*
X121059265Y-132966513D01*
X121281643Y-133299325D01*
X121564675Y-133582357D01*
X121897487Y-133804735D01*
X122267287Y-133957911D01*
X122659865Y-134036000D01*
X123060135Y-134036000D01*
X123452713Y-133957911D01*
X123822513Y-133804735D01*
X124155325Y-133582357D01*
X124438357Y-133299325D01*
X124660735Y-132966513D01*
X124813911Y-132596713D01*
X124892000Y-132204135D01*
X124892000Y-131803865D01*
X125908000Y-131803865D01*
X125908000Y-132204135D01*
X125986089Y-132596713D01*
X126139265Y-132966513D01*
X126361643Y-133299325D01*
X126644675Y-133582357D01*
X126977487Y-133804735D01*
X127347287Y-133957911D01*
X127739865Y-134036000D01*
X128140135Y-134036000D01*
X128532713Y-133957911D01*
X128902513Y-133804735D01*
X129235325Y-133582357D01*
X129518357Y-133299325D01*
X129740735Y-132966513D01*
X129893911Y-132596713D01*
X129972000Y-132204135D01*
X129972000Y-131803865D01*
X129893911Y-131411287D01*
X129740735Y-131041487D01*
X129518357Y-130708675D01*
X129235325Y-130425643D01*
X128902513Y-130203265D01*
X128532713Y-130050089D01*
X128140135Y-129972000D01*
X127739865Y-129972000D01*
X127347287Y-130050089D01*
X126977487Y-130203265D01*
X126644675Y-130425643D01*
X126361643Y-130708675D01*
X126139265Y-131041487D01*
X125986089Y-131411287D01*
X125908000Y-131803865D01*
X124892000Y-131803865D01*
X124813911Y-131411287D01*
X124660735Y-131041487D01*
X124438357Y-130708675D01*
X124155325Y-130425643D01*
X123822513Y-130203265D01*
X123452713Y-130050089D01*
X123060135Y-129972000D01*
X122786686Y-129972000D01*
X121197000Y-128382315D01*
X121197000Y-128092648D01*
X121281643Y-128219325D01*
X121564675Y-128502357D01*
X121897487Y-128724735D01*
X122267287Y-128877911D01*
X122659865Y-128956000D01*
X123060135Y-128956000D01*
X123452713Y-128877911D01*
X123822513Y-128724735D01*
X124155325Y-128502357D01*
X124438357Y-128219325D01*
X124660735Y-127886513D01*
X124813911Y-127516713D01*
X124892000Y-127124135D01*
X124892000Y-126723865D01*
X125908000Y-126723865D01*
X125908000Y-127124135D01*
X125986089Y-127516713D01*
X126139265Y-127886513D01*
X126361643Y-128219325D01*
X126644675Y-128502357D01*
X126977487Y-128724735D01*
X127347287Y-128877911D01*
X127739865Y-128956000D01*
X128140135Y-128956000D01*
X128532713Y-128877911D01*
X128902513Y-128724735D01*
X129235325Y-128502357D01*
X129518357Y-128219325D01*
X129740735Y-127886513D01*
X129893911Y-127516713D01*
X129972000Y-127124135D01*
X129972000Y-126723865D01*
X129893911Y-126331287D01*
X129740735Y-125961487D01*
X129518357Y-125628675D01*
X129325000Y-125435318D01*
X129325000Y-120957648D01*
X129500451Y-120840415D01*
X129730415Y-120610451D01*
X129911097Y-120340042D01*
X130035553Y-120039579D01*
X130099000Y-119720609D01*
X130099000Y-119395391D01*
X130035553Y-119076421D01*
X129911097Y-118775958D01*
X129730415Y-118505549D01*
X129500451Y-118275585D01*
X129230042Y-118094903D01*
X128929579Y-117970447D01*
X128610609Y-117907000D01*
X128285391Y-117907000D01*
X127966421Y-117970447D01*
X127665958Y-118094903D01*
X127395549Y-118275585D01*
X127165585Y-118505549D01*
X126984903Y-118775958D01*
X126860447Y-119076421D01*
X126828461Y-119237228D01*
X126782844Y-119292812D01*
X126654236Y-119533420D01*
X126575040Y-119794493D01*
X126548300Y-120066000D01*
X126555001Y-120134039D01*
X126555000Y-125435318D01*
X126361643Y-125628675D01*
X126139265Y-125961487D01*
X125986089Y-126331287D01*
X125908000Y-126723865D01*
X124892000Y-126723865D01*
X124813911Y-126331287D01*
X124660735Y-125961487D01*
X124438357Y-125628675D01*
X124155325Y-125345643D01*
X123822513Y-125123265D01*
X123452713Y-124970089D01*
X123060135Y-124892000D01*
X122659865Y-124892000D01*
X122267287Y-124970089D01*
X121897487Y-125123265D01*
X121564675Y-125345643D01*
X121281643Y-125628675D01*
X121197000Y-125755352D01*
X121197000Y-115177107D01*
X121203700Y-115109080D01*
X121197000Y-115041053D01*
X121197000Y-115041044D01*
X121176960Y-114837574D01*
X121097764Y-114576500D01*
X120969157Y-114335893D01*
X120796080Y-114125000D01*
X120743235Y-114081631D01*
X120208373Y-113546769D01*
X120165000Y-113493919D01*
X119954107Y-113320843D01*
X119713500Y-113192236D01*
X119452426Y-113113040D01*
X119248956Y-113093000D01*
X119248948Y-113093000D01*
X119180919Y-113086300D01*
X119112890Y-113093000D01*
X118923946Y-113093000D01*
X119042686Y-112974260D01*
X119220588Y-112708011D01*
X119276512Y-112573000D01*
X121363488Y-112573000D01*
X121419412Y-112708011D01*
X121597314Y-112974260D01*
X121823740Y-113200686D01*
X121834686Y-113208000D01*
X121823740Y-113215314D01*
X121597314Y-113441740D01*
X121419412Y-113707989D01*
X121296870Y-114003830D01*
X121234400Y-114317892D01*
X121234400Y-114638108D01*
X121296870Y-114952170D01*
X121419412Y-115248011D01*
X121597314Y-115514260D01*
X121823740Y-115740686D01*
X121834686Y-115748000D01*
X121823740Y-115755314D01*
X121597314Y-115981740D01*
X121419412Y-116247989D01*
X121296870Y-116543830D01*
X121234400Y-116857892D01*
X121234400Y-117178108D01*
X121296870Y-117492170D01*
X121419412Y-117788011D01*
X121597314Y-118054260D01*
X121823740Y-118280686D01*
X122089989Y-118458588D01*
X122385830Y-118581130D01*
X122699892Y-118643600D01*
X123020108Y-118643600D01*
X123334170Y-118581130D01*
X123630011Y-118458588D01*
X123829411Y-118325353D01*
X123900581Y-118303764D01*
X124141188Y-118175157D01*
X124352081Y-118002081D01*
X124395454Y-117949231D01*
X128791709Y-113552977D01*
X128929579Y-113525553D01*
X129230042Y-113401097D01*
X129500451Y-113220415D01*
X129730415Y-112990451D01*
X129911097Y-112720042D01*
X129972004Y-112573000D01*
X132793488Y-112573000D01*
X132849412Y-112708011D01*
X133027314Y-112974260D01*
X133146054Y-113093000D01*
X132957107Y-113093000D01*
X132889080Y-113086300D01*
X132821053Y-113093000D01*
X132821044Y-113093000D01*
X132617574Y-113113040D01*
X132356500Y-113192236D01*
X132115893Y-113320843D01*
X131905000Y-113493919D01*
X131861627Y-113546769D01*
X131326765Y-114081631D01*
X131273920Y-114125000D01*
X131230551Y-114177845D01*
X131230548Y-114177848D01*
X131100844Y-114335893D01*
X130972236Y-114576501D01*
X130893040Y-114837574D01*
X130866300Y-115109081D01*
X130873001Y-115177120D01*
X130873000Y-118981971D01*
X130866300Y-119050000D01*
X130873000Y-119118029D01*
X130873000Y-119118036D01*
X130893040Y-119321506D01*
X130972236Y-119582580D01*
X131100843Y-119823187D01*
X131273919Y-120034080D01*
X131326765Y-120077450D01*
X132651001Y-121401687D01*
X132651000Y-125777282D01*
X132570566Y-125971466D01*
X132512000Y-126265899D01*
X132512000Y-126566101D01*
X132570566Y-126860534D01*
X132685449Y-127137885D01*
X132852232Y-127387493D01*
X133064507Y-127599768D01*
X133314115Y-127766551D01*
X133591466Y-127881434D01*
X133885899Y-127940000D01*
X133911659Y-127940000D01*
X133104765Y-128746894D01*
X133051920Y-128790263D01*
X133008551Y-128843108D01*
X133008548Y-128843111D01*
X132878844Y-129001156D01*
X132750236Y-129241764D01*
X132671040Y-129502837D01*
X132644300Y-129774344D01*
X132651001Y-129842383D01*
X132651001Y-130261317D01*
X132457643Y-130454675D01*
X132235265Y-130787487D01*
X132082089Y-131157287D01*
X132004000Y-131549865D01*
X132004000Y-131950135D01*
X132082089Y-132342713D01*
X132235265Y-132712513D01*
X132457643Y-133045325D01*
X132651001Y-133238683D01*
X132651000Y-135341318D01*
X132457643Y-135534675D01*
X132235265Y-135867487D01*
X132082089Y-136237287D01*
X132004000Y-136629865D01*
X132004000Y-137030135D01*
X132082089Y-137422713D01*
X132235265Y-137792513D01*
X132457643Y-138125325D01*
X132740675Y-138408357D01*
X133073487Y-138630735D01*
X133443287Y-138783911D01*
X133835865Y-138862000D01*
X134236135Y-138862000D01*
X134628713Y-138783911D01*
X134998513Y-138630735D01*
X135331325Y-138408357D01*
X135614357Y-138125325D01*
X135836735Y-137792513D01*
X135989911Y-137422713D01*
X136068000Y-137030135D01*
X136068000Y-136629865D01*
X135989911Y-136237287D01*
X135836735Y-135867487D01*
X135614357Y-135534675D01*
X135421000Y-135341318D01*
X135421000Y-134925000D01*
X140767000Y-134925000D01*
X140767000Y-143307000D01*
X140422288Y-143307000D01*
X140417211Y-143306500D01*
X140386000Y-143303426D01*
X140354789Y-143306500D01*
X110445211Y-143306500D01*
X110414000Y-143303426D01*
X110382789Y-143306500D01*
X110289420Y-143315696D01*
X110169628Y-143352035D01*
X110059227Y-143411045D01*
X109962460Y-143490460D01*
X109883045Y-143587227D01*
X109824035Y-143697628D01*
X109787696Y-143817420D01*
X109775426Y-143942000D01*
X109778500Y-143973211D01*
X109778500Y-144828918D01*
X109768569Y-144930204D01*
X109748178Y-144997740D01*
X109715060Y-145060026D01*
X109670475Y-145114693D01*
X109616122Y-145159658D01*
X109554073Y-145193208D01*
X109486675Y-145214071D01*
X109387451Y-145224500D01*
X104891081Y-145224500D01*
X104207093Y-145157435D01*
X103579052Y-144967819D01*
X102999802Y-144659826D01*
X102491407Y-144245190D01*
X102073230Y-143739700D01*
X101761200Y-143162613D01*
X101567205Y-142535918D01*
X101495500Y-141853693D01*
X101495500Y-136883865D01*
X109652000Y-136883865D01*
X109652000Y-137284135D01*
X109730089Y-137676713D01*
X109883265Y-138046513D01*
X110105643Y-138379325D01*
X110388675Y-138662357D01*
X110721487Y-138884735D01*
X111091287Y-139037911D01*
X111483865Y-139116000D01*
X111884135Y-139116000D01*
X112276713Y-139037911D01*
X112646513Y-138884735D01*
X112979325Y-138662357D01*
X113262357Y-138379325D01*
X113484735Y-138046513D01*
X113637911Y-137676713D01*
X113716000Y-137284135D01*
X113716000Y-136883865D01*
X114732000Y-136883865D01*
X114732000Y-137284135D01*
X114810089Y-137676713D01*
X114963265Y-138046513D01*
X115185643Y-138379325D01*
X115468675Y-138662357D01*
X115801487Y-138884735D01*
X116171287Y-139037911D01*
X116563865Y-139116000D01*
X116964135Y-139116000D01*
X117356713Y-139037911D01*
X117726513Y-138884735D01*
X118059325Y-138662357D01*
X118342357Y-138379325D01*
X118564735Y-138046513D01*
X118717911Y-137676713D01*
X118796000Y-137284135D01*
X118796000Y-136883865D01*
X120828000Y-136883865D01*
X120828000Y-137284135D01*
X120906089Y-137676713D01*
X121059265Y-138046513D01*
X121281643Y-138379325D01*
X121564675Y-138662357D01*
X121897487Y-138884735D01*
X122267287Y-139037911D01*
X122659865Y-139116000D01*
X123060135Y-139116000D01*
X123452713Y-139037911D01*
X123822513Y-138884735D01*
X124155325Y-138662357D01*
X124438357Y-138379325D01*
X124660735Y-138046513D01*
X124813911Y-137676713D01*
X124892000Y-137284135D01*
X124892000Y-136883865D01*
X125908000Y-136883865D01*
X125908000Y-137284135D01*
X125986089Y-137676713D01*
X126139265Y-138046513D01*
X126361643Y-138379325D01*
X126644675Y-138662357D01*
X126977487Y-138884735D01*
X127347287Y-139037911D01*
X127739865Y-139116000D01*
X128140135Y-139116000D01*
X128532713Y-139037911D01*
X128902513Y-138884735D01*
X129235325Y-138662357D01*
X129518357Y-138379325D01*
X129740735Y-138046513D01*
X129893911Y-137676713D01*
X129972000Y-137284135D01*
X129972000Y-136883865D01*
X129893911Y-136491287D01*
X129740735Y-136121487D01*
X129518357Y-135788675D01*
X129235325Y-135505643D01*
X128902513Y-135283265D01*
X128532713Y-135130089D01*
X128140135Y-135052000D01*
X127739865Y-135052000D01*
X127347287Y-135130089D01*
X126977487Y-135283265D01*
X126644675Y-135505643D01*
X126361643Y-135788675D01*
X126139265Y-136121487D01*
X125986089Y-136491287D01*
X125908000Y-136883865D01*
X124892000Y-136883865D01*
X124813911Y-136491287D01*
X124660735Y-136121487D01*
X124438357Y-135788675D01*
X124155325Y-135505643D01*
X123822513Y-135283265D01*
X123452713Y-135130089D01*
X123060135Y-135052000D01*
X122659865Y-135052000D01*
X122267287Y-135130089D01*
X121897487Y-135283265D01*
X121564675Y-135505643D01*
X121281643Y-135788675D01*
X121059265Y-136121487D01*
X120906089Y-136491287D01*
X120828000Y-136883865D01*
X118796000Y-136883865D01*
X118717911Y-136491287D01*
X118564735Y-136121487D01*
X118342357Y-135788675D01*
X118059325Y-135505643D01*
X117726513Y-135283265D01*
X117356713Y-135130089D01*
X116964135Y-135052000D01*
X116563865Y-135052000D01*
X116171287Y-135130089D01*
X115801487Y-135283265D01*
X115468675Y-135505643D01*
X115185643Y-135788675D01*
X114963265Y-136121487D01*
X114810089Y-136491287D01*
X114732000Y-136883865D01*
X113716000Y-136883865D01*
X113637911Y-136491287D01*
X113484735Y-136121487D01*
X113262357Y-135788675D01*
X112979325Y-135505643D01*
X112646513Y-135283265D01*
X112276713Y-135130089D01*
X111884135Y-135052000D01*
X111483865Y-135052000D01*
X111091287Y-135130089D01*
X110721487Y-135283265D01*
X110388675Y-135505643D01*
X110105643Y-135788675D01*
X109883265Y-136121487D01*
X109730089Y-136491287D01*
X109652000Y-136883865D01*
X101495500Y-136883865D01*
X101495500Y-131803865D01*
X109652000Y-131803865D01*
X109652000Y-132204135D01*
X109730089Y-132596713D01*
X109883265Y-132966513D01*
X110105643Y-133299325D01*
X110388675Y-133582357D01*
X110721487Y-133804735D01*
X111091287Y-133957911D01*
X111483865Y-134036000D01*
X111884135Y-134036000D01*
X112276713Y-133957911D01*
X112646513Y-133804735D01*
X112979325Y-133582357D01*
X113262357Y-133299325D01*
X113484735Y-132966513D01*
X113637911Y-132596713D01*
X113716000Y-132204135D01*
X113716000Y-131803865D01*
X113637911Y-131411287D01*
X113484735Y-131041487D01*
X113262357Y-130708675D01*
X112979325Y-130425643D01*
X112646513Y-130203265D01*
X112276713Y-130050089D01*
X111884135Y-129972000D01*
X111483865Y-129972000D01*
X111091287Y-130050089D01*
X110721487Y-130203265D01*
X110388675Y-130425643D01*
X110105643Y-130708675D01*
X109883265Y-131041487D01*
X109730089Y-131411287D01*
X109652000Y-131803865D01*
X101495500Y-131803865D01*
X101495500Y-111891081D01*
X101562566Y-111207089D01*
X101752182Y-110579050D01*
X102060175Y-109999799D01*
X102474812Y-109491405D01*
X102980298Y-109073231D01*
X103557388Y-108761199D01*
X104184086Y-108567205D01*
X104191000Y-108566478D01*
X104191000Y-112446000D01*
G36*
X133815830Y-116041130D02*
G01*
X134129892Y-116103600D01*
X134163000Y-116103600D01*
X134163000Y-118996315D01*
X133643000Y-118476315D01*
X133643000Y-115969541D01*
X133815830Y-116041130D01*
X133815830Y-116041130D01*
G37*
X133815830Y-116041130D02*
X134129892Y-116103600D01*
X134163000Y-116103600D01*
X134163000Y-118996315D01*
X133643000Y-118476315D01*
X133643000Y-115969541D01*
X133815830Y-116041130D01*
G36*
X143815001Y-128922582D02*
G01*
X143842565Y-129202445D01*
X143951495Y-129561539D01*
X144128388Y-129892482D01*
X144366445Y-130182556D01*
X144656519Y-130420613D01*
X144987462Y-130597506D01*
X145346556Y-130706436D01*
X145720000Y-130743217D01*
X146093445Y-130706436D01*
X146101000Y-130704144D01*
X146101000Y-135687000D01*
X141529000Y-135687000D01*
X141529000Y-134036000D01*
X141526560Y-134011224D01*
X141519333Y-133987399D01*
X141507597Y-133965443D01*
X141491803Y-133946197D01*
X141472557Y-133930403D01*
X141450601Y-133918667D01*
X141426776Y-133911440D01*
X141402000Y-133909000D01*
X135433000Y-133909000D01*
X135433000Y-133226682D01*
X135614357Y-133045325D01*
X135836735Y-132712513D01*
X135989911Y-132342713D01*
X136068000Y-131950135D01*
X136068000Y-131549865D01*
X135989911Y-131157287D01*
X135836735Y-130787487D01*
X135614357Y-130454675D01*
X135464356Y-130304674D01*
X136940029Y-128829000D01*
X143815001Y-128829000D01*
X143815001Y-128922582D01*
X143815001Y-128922582D01*
G37*
X143815001Y-128922582D02*
X143842565Y-129202445D01*
X143951495Y-129561539D01*
X144128388Y-129892482D01*
X144366445Y-130182556D01*
X144656519Y-130420613D01*
X144987462Y-130597506D01*
X145346556Y-130706436D01*
X145720000Y-130743217D01*
X146093445Y-130706436D01*
X146101000Y-130704144D01*
X146101000Y-135687000D01*
X141529000Y-135687000D01*
X141529000Y-134036000D01*
X141526560Y-134011224D01*
X141519333Y-133987399D01*
X141507597Y-133965443D01*
X141491803Y-133946197D01*
X141472557Y-133930403D01*
X141450601Y-133918667D01*
X141426776Y-133911440D01*
X141402000Y-133909000D01*
X135433000Y-133909000D01*
X135433000Y-133226682D01*
X135614357Y-133045325D01*
X135836735Y-132712513D01*
X135989911Y-132342713D01*
X136068000Y-131950135D01*
X136068000Y-131549865D01*
X135989911Y-131157287D01*
X135836735Y-130787487D01*
X135614357Y-130454675D01*
X135464356Y-130304674D01*
X136940029Y-128829000D01*
X143815001Y-128829000D01*
X143815001Y-128922582D01*
G36*
X146101000Y-143307000D02*
G01*
X141529000Y-143307000D01*
X141529000Y-136449000D01*
X146101000Y-136449000D01*
X146101000Y-143307000D01*
X146101000Y-143307000D01*
G37*
X146101000Y-143307000D02*
X141529000Y-143307000D01*
X141529000Y-136449000D01*
X146101000Y-136449000D01*
X146101000Y-143307000D01*
M02*
