G04 #@! TF.GenerationSoftware,KiCad,Pcbnew,(5.1.4)-1*
G04 #@! TF.CreationDate,2019-11-30T19:48:50-06:00*
G04 #@! TF.ProjectId,rotax 912 soft start,726f7461-7820-4393-9132-20736f667420,rev?*
G04 #@! TF.SameCoordinates,Original*
G04 #@! TF.FileFunction,Profile,NP*
%FSLAX46Y46*%
G04 Gerber Fmt 4.6, Leading zero omitted, Abs format (unit mm)*
G04 Created by KiCad (PCBNEW (5.1.4)-1) date 2019-11-30 19:48:50*
%MOMM*%
%LPD*%
G04 APERTURE LIST*
%ADD10C,0.010000*%
%ADD11C,0.001000*%
G04 APERTURE END LIST*
D10*
X140386000Y-149360000D02*
G75*
G03X144386000Y-153360000I4000000J0D01*
G01*
D11*
X110414000Y-144860000D02*
G75*
G02X109414000Y-145860000I-1000000J0D01*
G01*
X104860000Y-145860000D02*
X109414000Y-145860000D01*
X140386000Y-143942000D02*
X110414000Y-143942000D01*
X140386000Y-143942000D02*
X140386000Y-149360000D01*
X110414000Y-143942000D02*
X110414000Y-144860000D01*
X160960000Y-107874000D02*
X149784000Y-107874000D01*
X160960000Y-145974000D02*
X160960000Y-107874000D01*
X149784000Y-145974000D02*
X160960000Y-145974000D01*
X149784000Y-107874000D02*
X149784000Y-145974000D01*
X165860000Y-150360000D02*
X165860000Y-148860000D01*
X107860000Y-103360000D02*
X107860000Y-104860000D01*
X165860000Y-103360000D02*
X165860000Y-104860000D01*
X144386000Y-153360000D02*
X162860000Y-153360000D01*
X162860000Y-100360000D02*
X110860000Y-100360000D01*
X162860000Y-100360000D02*
G75*
G02X165860000Y-103360000I0J-3000000D01*
G01*
X162860000Y-153360000D02*
G75*
G03X165860000Y-150360000I0J3000000D01*
G01*
X110860000Y-100360000D02*
G75*
G03X107860000Y-103360000I0J-3000000D01*
G01*
X100860000Y-111860000D02*
X100860000Y-141860000D01*
X172860000Y-111860000D02*
X172860000Y-141860000D01*
X168860000Y-107860000D02*
G75*
G02X172860000Y-111860000I0J-4000000D01*
G01*
X172860000Y-141860000D02*
G75*
G02X168860000Y-145860000I-4000000J0D01*
G01*
X104860000Y-145860000D02*
G75*
G02X100860000Y-141860000I0J4000000D01*
G01*
X100860000Y-111860000D02*
G75*
G02X104860000Y-107860000I4000000J0D01*
G01*
X168860000Y-107860000D02*
G75*
G02X165860000Y-104860000I0J3000000D01*
G01*
X165860000Y-148860000D02*
G75*
G02X168860000Y-145860000I3000000J0D01*
G01*
X107860000Y-104860000D02*
G75*
G02X104860000Y-107860000I-3000000J0D01*
G01*
M02*
